<svg width="20" height="20" viewBox="0 0 20 20" fill="none" xmlns="http://www.w3.org/2000/svg">
<g opacity="0.5">
<path fill-rule="evenodd" clip-rule="evenodd" d="M14.4621 18.5269C12.7787 18.1052 9.33241 16.9161 6.20814 13.7919C3.08388 10.6676 1.89485 7.22135 1.47307 5.53795C1.23069 4.57052 1.66716 3.63698 2.40725 3.10834L4.34746 1.72248C5.4827 0.911597 7.06194 1.18675 7.85604 2.33379L9.07753 4.09817C9.59604 4.84712 9.41719 5.87361 8.67595 6.40307L7.70196 7.09878C7.84937 7.66261 8.30784 8.8205 9.74368 10.2563C11.1795 11.6922 12.3374 12.1506 12.9012 12.2981L13.5969 11.3241C14.1264 10.5828 15.1529 10.404 15.9018 10.9225L17.6662 12.144C18.8133 12.9381 19.0884 14.5173 18.2775 15.6526L16.8917 17.5928C16.363 18.3329 15.4295 18.7693 14.4621 18.5269ZM7.38665 12.6134C10.2278 15.4545 13.3632 16.5334 14.8671 16.9102C15.0869 16.9653 15.3527 16.8799 15.5355 16.624L16.9213 14.6838C17.1916 14.3054 17.0999 13.779 16.7175 13.5143L14.9532 12.2928L14.2066 13.338C13.9015 13.7652 13.3372 14.1002 12.6802 13.9584C11.8602 13.7815 10.3444 13.2141 8.56517 11.4349C6.78592 9.65561 6.2185 8.13978 6.04157 7.31978C5.89982 6.66278 6.23485 6.09854 6.662 5.79343L7.70721 5.04685L6.48572 3.28247C6.22102 2.90012 5.6946 2.8084 5.31619 3.0787L3.37598 4.46456C3.12012 4.64732 3.03469 4.91307 3.08977 5.13289C3.46658 6.63685 4.54551 9.77221 7.38665 12.6134Z" fill="white"/>
</g>
</svg>
