<svg width="35" height="35" viewBox="0 0 35 35" fill="none" xmlns="http://www.w3.org/2000/svg">
<path fill-rule="evenodd" clip-rule="evenodd" d="M8.83402 0.963341C9.71952 0.520619 10.7759 0 12.7273 0C14.6786 0 15.735 0.520578 16.6205 0.963292L16.6459 0.975977C17.3389 1.32254 17.8753 1.59077 19.091 1.5908C21.059 1.59087 22.2247 0.857039 22.6133 0.564962C23.2183 0.110287 23.9332 0.148621 24.4267 0.376891C24.9266 0.608096 25.4545 1.15975 25.4545 1.97507L25.4545 19.0909H30.2273C32.8621 19.0909 35 21.2251 35 23.862V28.6364C35 30.1079 34.6275 31.3174 33.9871 32.2781C33.3532 33.2288 32.5195 33.8428 31.7342 34.2354C30.9551 34.625 30.1953 34.8118 29.6436 34.9038C29.3123 34.959 28.973 35.0006 28.6364 35H6.36364C4.89207 35 3.68263 34.6275 2.72193 33.9871C1.77118 33.3532 1.15721 32.5195 0.764548 31.7342C0.375002 30.9551 0.188159 30.1953 0.0962199 29.6436C0.049622 29.3641 0.0257075 29.1276 0.0133647 28.9548C0.00308045 28.8108 4.20402e-05 28.7257 0 28.6364V1.97506C0 1.15975 0.527933 0.608099 1.02782 0.376885C1.52136 0.148605 2.2362 0.11027 2.8412 0.564915C3.22985 0.856984 4.39551 1.5908 6.36364 1.5908C7.57933 1.5908 8.11567 1.32258 8.80867 0.976015L8.83402 0.963341ZM3.1871 28.6364L3.18182 4.26953C4.04119 4.55918 5.10256 4.77262 6.36364 4.77262C8.31499 4.77262 9.37139 4.252 10.2569 3.80928L10.2822 3.79661C10.9752 3.45004 11.5116 3.18182 12.7273 3.18182C13.943 3.18182 14.4794 3.45004 15.1723 3.79659L15.1977 3.80925C16.0832 4.25195 17.1395 4.77256 19.0909 4.77262C20.352 4.77266 21.4133 4.55924 22.2727 4.26958V28.6364C22.2727 29.8821 22.5396 30.94 23.0101 31.8182H6.36364C5.44884 31.8182 4.86851 31.594 4.48688 31.3396C4.0953 31.0786 3.81438 30.7191 3.61045 30.3112C3.40341 29.8972 3.29195 29.4638 3.23475 29.1206C3.20786 28.9592 3.19155 28.7993 3.1871 28.6364ZM29.1206 31.7653C29.4638 31.708 29.8972 31.5966 30.3113 31.3895C30.7191 31.1856 31.0786 30.9047 31.3396 30.5131C31.5941 30.1315 31.8182 29.5512 31.8182 28.6364V23.862C31.8182 22.9844 31.107 22.2727 30.2273 22.2727H25.4545L25.4545 28.6364C25.4545 29.5512 25.6787 30.1315 25.9331 30.5131C26.1942 30.9047 26.5536 31.1856 26.9615 31.3895C27.3756 31.5966 27.8089 31.708 28.1522 31.7653C28.32 31.7932 28.4564 31.8066 28.5446 31.8129C28.7365 31.8266 28.9318 31.7967 29.1206 31.7653Z" fill="#908F8F"/>
<path d="M6.36364 11.1364C6.36364 10.2577 7.07591 9.54545 7.95455 9.54545H17.5C18.3786 9.54545 19.0909 10.2577 19.0909 11.1364C19.0909 12.015 18.3786 12.7273 17.5 12.7273H7.95455C7.07591 12.7273 6.36364 12.015 6.36364 11.1364Z" fill="#908F8F"/>
<path d="M6.36364 17.5C6.36364 16.6214 7.07591 15.9091 7.95455 15.9091H17.5C18.3786 15.9091 19.0909 16.6214 19.0909 17.5C19.0909 18.3786 18.3786 19.0909 17.5 19.0909H7.95455C7.07591 19.0909 6.36364 18.3786 6.36364 17.5Z" fill="#908F8F"/>
<path d="M6.36364 23.8636C6.36364 22.985 7.07591 22.2727 7.95455 22.2727H17.5C18.3786 22.2727 19.0909 22.985 19.0909 23.8636C19.0909 24.7423 18.3786 25.4545 17.5 25.4545H7.95455C7.07591 25.4545 6.36364 24.7423 6.36364 23.8636Z" fill="#908F8F"/>
</svg>
