<svg width="79" height="51" viewBox="0 0 79 51" fill="none" xmlns="http://www.w3.org/2000/svg">
<g opacity="0.4">
<path d="M11.1629 19.9992C7.86667 20.0531 5.11978 17.4662 5.00991 14.2326C4.90003 11.8074 5.7241 9.59782 6.49323 7.71156C7.70186 4.96302 9.5148 2.48394 11.2728 0.274325C11.3278 0.220432 11.3827 0.166539 11.4376 0.112646L11.4926 0.0587526C11.6024 -0.0490335 11.8222 0.00485953 11.8771 0.112646C11.8771 0.166539 11.9321 0.220432 11.9321 0.220432C12.2068 2.32226 13.2506 4.10073 14.2944 5.82531C14.679 6.47202 15.0635 7.11874 15.4481 7.81935C16.6018 10.029 17.0962 11.9691 17.0962 13.9093C17.0962 17.1428 14.5141 19.7836 11.2728 19.8914L11.1629 19.9992ZM11.5475 0.974934C9.73456 3.07676 8.25124 5.44806 7.09754 7.92714C6.32841 9.7595 5.55928 11.8613 5.66916 14.1787C5.7241 17.1428 8.1963 19.4602 11.2179 19.4064C14.2395 19.3525 16.6018 16.9273 16.5468 13.9632C16.6018 12.1308 16.1073 10.2445 14.9536 8.1966C14.624 7.54988 14.2395 6.90317 13.8549 6.25645C12.9209 4.63966 11.9321 2.96898 11.5475 0.974934Z" fill="#1E1E1E"/>
<path d="M7.92161 16.6039C7.81173 16.6039 7.7568 16.55 7.70186 16.4961C5.94385 13.9632 7.64692 10.3523 7.70186 10.1906C7.81173 10.029 7.97655 10.029 8.08642 10.0829C8.1963 10.1367 8.25124 10.2984 8.1963 10.4062C8.1963 10.4601 6.54816 13.8554 8.14136 16.1189C8.25124 16.2267 8.1963 16.4422 8.08642 16.4961C8.03148 16.6039 7.97655 16.6039 7.92161 16.6039Z" fill="#1E1E1E"/>
<path d="M36.7338 4.57344H35.0948C34.8981 4.57344 34.767 4.44596 34.767 4.25474V1.13141C34.767 0.493996 35.2915 0.0478061 35.8815 0.0478061C36.4716 0.0478061 36.9961 0.557737 36.9961 1.13141V4.25474C36.9961 4.44596 36.865 4.57344 36.7338 4.57344ZM36.406 3.93603V1.13141C36.406 0.876444 36.2093 0.621478 35.8815 0.621478C35.6193 0.621478 35.357 0.812702 35.357 1.13141V3.93603H36.406Z" fill="#1E1E1E"/>
<path d="M29.9809 4.57344H28.3419C28.1452 4.57344 28.0141 4.44596 28.0141 4.25474V1.13141C28.0141 0.493996 28.5386 0.0478061 29.1286 0.0478061C29.7187 0.0478061 30.2432 0.557737 30.2432 1.13141V4.25474C30.3087 4.44596 30.1776 4.57344 29.9809 4.57344ZM28.6697 3.99977H29.7187V1.13141C29.7187 0.876444 29.4564 0.621478 29.1942 0.621478C28.9319 0.621478 28.6697 0.812702 28.6697 1.13141V3.99977Z" fill="#1E1E1E"/>
<path d="M45.3225 19.9989C41.9788 20.0626 39.2252 17.4492 39.1596 14.1984C39.1596 11.9674 39.6841 9.7365 40.6676 7.69677C41.9132 5.01963 43.4867 2.53372 45.4536 0.23903C45.5192 0.175289 45.5847 0.111547 45.6503 0.111547L45.7158 0.047806C45.7814 -0.0159353 45.9125 -0.0159353 45.9781 0.047806C46.1092 0.111547 46.1748 0.175289 46.1748 0.302771C46.437 2.40624 47.5516 4.191 48.535 5.91201C48.9284 6.54943 49.3218 7.25058 49.6496 7.888C50.6986 9.7365 51.2886 11.84 51.2886 14.0072C51.2886 17.258 48.6661 19.8714 45.388 19.9989H45.3225ZM45.6503 0.940185C43.8145 3.04365 42.3066 5.40208 41.1921 7.95174C40.2086 9.92772 39.7497 12.0312 39.7497 14.1984C39.8153 17.1305 42.3066 19.4252 45.3225 19.4252H45.4536C48.4695 19.2977 50.8297 16.9393 50.8297 14.0072C50.8297 11.9674 50.2396 9.99146 49.2562 8.2067C48.9284 7.56929 48.535 6.86813 48.1416 6.23072C47.0927 4.5097 46.1092 2.85243 45.6503 0.940185Z" fill="#1E1E1E"/>
<path d="M37.9795 5.2746V7.18684C37.9795 7.37807 37.8484 7.50555 37.6517 7.50555H27.424C27.2273 7.50555 27.0962 7.37807 27.0962 7.18684V5.2746C27.0962 5.08338 27.2273 4.95589 27.424 4.95589H37.7173C37.8484 4.95589 37.9795 5.08338 37.9795 5.2746ZM37.3895 6.86813V5.59331H27.6863V6.86813H37.3895Z" fill="#1E1E1E"/>
<path d="M34.3736 14.9633V19.6164C34.3736 19.8076 34.2425 19.9351 34.0458 19.9351H31.0299C30.8332 19.9351 30.7021 19.8076 30.7021 19.6164V14.9633C30.7021 14.7721 30.8332 14.6446 31.0299 14.6446H34.1113C34.2425 14.6446 34.3736 14.8358 34.3736 14.9633ZM33.7835 19.3614V15.282H31.2922V19.3614H33.7835Z" fill="#1E1E1E"/>
<path d="M37.9795 5.2746V10.5651C37.9795 12.6049 36.2749 14.1984 34.2425 14.1984H30.8332C28.7352 14.1984 27.0962 12.5411 27.0962 10.5651V5.2746C27.0962 5.08338 27.2273 4.95589 27.424 4.95589H37.7173C37.8484 4.95589 37.9795 5.08338 37.9795 5.2746ZM27.6863 10.5651C27.6863 12.2224 29.0631 13.6247 30.8332 13.6247H34.2425C35.9471 13.6247 37.3895 12.2861 37.3895 10.5651V5.52956H27.6863V10.5651Z" fill="#1E1E1E"/>
<path d="M42.7 16.3019C42.5689 16.3019 42.4377 16.2381 42.3722 16.1106C40.602 13.561 42.3066 9.99146 42.3722 9.80024C42.4377 9.60901 42.7 9.54527 42.8967 9.60901C43.0934 9.67275 43.1589 9.92772 43.0934 10.1189C43.0934 10.1189 41.5199 13.4972 43.0278 15.6644C43.1589 15.8557 43.0934 16.0469 42.9622 16.1744C42.8311 16.2381 42.7655 16.3019 42.7 16.3019Z" fill="#1E1E1E"/>
<path d="M1.46291 50.1304C0.414707 49.1029 0.414707 47.4806 1.46291 46.5071C1.51808 46.4531 1.57325 46.399 1.62842 46.3449L6.20741 42.6675C6.75909 42.2349 6.97977 41.4778 6.75909 40.8289C6.48325 40.0717 6.09707 39.3687 5.82123 38.9361C5.65572 38.6657 5.71089 38.3412 5.93156 38.1249L12.938 31.2028C13.2138 30.9324 13.6552 30.9324 13.931 31.2028L20.8822 38.0167C21.1581 38.2871 21.1581 38.7198 20.8822 38.9902L13.8207 45.9123C13.6 46.1286 13.269 46.1827 12.9931 46.0204C12.5518 45.75 11.8346 45.3715 11.0622 45.1011C10.4002 44.8848 9.62786 45.1011 9.18651 45.6419L5.43505 50.0764C4.55235 51.1579 2.89729 51.3202 1.79392 50.4008C1.73875 50.3468 1.68358 50.2927 1.62842 50.2386L1.46291 50.1304ZM7.58662 42.5594C7.58662 42.5594 7.53145 42.6135 2.1801 46.9398C2.12493 46.9939 2.06976 46.9939 2.06976 47.0479C1.35257 47.751 1.35257 48.9407 2.06976 49.6437C2.78696 50.3468 4.00066 50.3468 4.71786 49.6437C4.77302 49.5896 4.82819 49.5356 4.82819 49.5356L9.29685 44.2358C9.29685 44.2358 9.51752 43.9654 10.2347 44.0736C10.8416 44.1277 11.6139 44.4521 12.5518 44.9929C12.938 45.2092 13.3793 45.1552 13.7103 44.8848L14.4827 43.9654C14.8689 43.5869 14.8689 43.0461 14.4827 42.6675L9.13134 37.476C8.74516 37.0974 8.19347 37.0974 7.80729 37.476L6.97977 38.2871C6.70392 38.5575 6.59359 39.0442 6.86943 39.4228C7.42111 40.2881 7.75213 41.0452 7.80729 41.6941C7.86246 42.3431 7.64179 42.5594 7.58662 42.5594ZM15.0344 34.069C14.3172 33.42 12.7725 34.4475 12.4966 34.6639C12.1656 34.8802 11.5036 35.0965 11.1726 34.9342C10.8416 34.772 10.4002 34.8802 10.1244 35.1506L9.79336 35.475C9.40718 35.8536 9.40718 36.4485 9.79336 36.7729L15.3102 42.1808C15.6964 42.5594 16.3033 42.5594 16.6343 42.1808L17.2963 41.5319C17.517 41.3156 17.6273 40.9911 17.5721 40.6666C17.5721 40.6125 17.5721 40.5044 17.6273 40.3962C17.9031 39.7473 18.2893 38.7198 17.7376 38.179C17.7376 38.179 17.7376 38.179 17.6825 38.1249C17.1308 37.6382 16.3584 37.9086 15.3654 38.2331L15.1447 38.3412C14.9792 38.3953 14.8137 38.3953 14.7034 38.2871C14.593 38.179 14.5379 38.0167 14.5379 37.8004C14.5379 37.53 14.593 37.2596 14.7034 37.0433C15.4206 35.421 15.4757 34.5557 15.0344 34.069Z" fill="#1E1E1E"/>
<path d="M45.1338 39.4097C45.3003 39.4097 45.4668 39.3019 45.4668 39.0863C45.4668 38.9245 45.3558 38.7628 45.1338 38.7628H44.8562V36.6065C44.6342 36.4447 44.4676 36.283 44.3011 36.1213L44.2456 36.1752V38.7089H32.6437V35.69H42.1917C42.3027 35.4744 42.4692 35.3127 42.6357 35.097H32.6437V32.2399H44.2456V33.4798C44.2456 33.4798 44.2456 33.4798 44.3011 33.5337C44.4676 33.372 44.6897 33.2102 44.8562 33.1024V32.2399H45.1338C45.2448 32.2399 45.4113 32.0782 45.4113 31.9164C45.4113 31.7547 45.3003 31.593 45.0783 31.593H44.8562V31.3235C44.8562 31.1617 44.7452 31.0539 44.5231 31C44.3566 31 44.2456 31.1078 44.1901 31.2695V31.593H32.6437V31.3235C32.6437 31.1617 32.5327 31 32.3661 31C32.1996 31 32.0331 31.1078 32.0331 31.2695V31.6469H31.4224C31.2559 31.6469 31.0894 31.7547 31.0894 31.9164C31.0894 32.0782 31.2004 32.2399 31.3669 32.2399H32.0331V35.097H31.4224C31.2559 35.097 31.1449 35.2588 31.1449 35.4205C31.1449 35.5283 31.2559 35.6361 31.4224 35.69H32.0331V38.8167H31.4224C31.2559 38.8167 31.1449 38.9245 31.0894 39.0863C31.0894 39.248 31.2004 39.3558 31.4224 39.4097H32.0331V42.5364H31.4224C31.2559 42.5364 31.1449 42.6442 31.0894 42.8059C31.0894 42.9677 31.2004 43.1294 31.3669 43.1294H31.9775V46.2561H31.4224C31.2559 46.2561 31.0894 46.3639 31.0894 46.5795C31.0894 46.7412 31.2004 46.8491 31.3669 46.903H31.9775V49.7601H31.4224C31.2559 49.7601 31.1449 49.8679 31.0894 50.0296C31.0894 50.1914 31.2004 50.3531 31.4224 50.3531H32.0331V50.6766C32.0331 50.8383 32.1441 50.9461 32.3106 51C32.4771 51 32.5882 50.8922 32.6437 50.6766V50.3531H44.2456V50.6766C44.2456 50.8383 44.3566 51 44.5231 51C44.6897 51 44.8562 50.8922 44.8562 50.7305V50.3531H45.1338C45.3003 50.3531 45.4668 50.2453 45.4668 50.0296C45.4668 49.8679 45.3558 49.7601 45.1893 49.7062H44.8562V46.8491H45.0783C45.2448 46.8491 45.3558 46.7412 45.4113 46.5256C45.4113 46.3639 45.3003 46.2561 45.1338 46.2022H44.8562V43.0755H45.0783C45.2448 43.0755 45.3558 42.9137 45.3558 42.752C45.3558 42.6442 45.2448 42.5364 45.0783 42.4825H44.8562V39.3558H45.1338V39.4097ZM44.2456 49.7062H32.6437V46.8491H44.2456V49.7062ZM44.2456 46.2561H32.6437V43.1294H44.2456V46.2561ZM44.2456 42.5364H32.6437V39.4097H44.2456V42.5364Z" fill="#1E1E1E"/>
<path d="M45.9664 35.9596L46.9656 37.469L45.4113 36.4987C45.2448 36.3908 45.0227 36.2291 44.8562 36.1213C44.6897 35.9596 44.4676 35.7978 44.3011 35.6361L44.2456 35.69C43.9125 35.9596 43.5239 36.2291 43.1909 36.4987L41.581 37.469L42.5802 36.0135C42.6357 35.8518 42.6913 35.7978 42.7468 35.69C42.9133 35.4744 43.0798 35.3127 43.2464 35.097C43.3019 34.9892 43.4129 34.9353 43.4684 34.8814C43.1354 34.504 42.8578 34.1806 42.5802 33.7493L41.581 32.2938L43.1354 33.2642C43.5239 33.5337 43.9125 33.8032 44.2456 34.0728C44.2456 34.0728 44.2456 34.0728 44.2456 34.1267C44.4121 33.965 44.6342 33.8032 44.8007 33.6954C45.0227 33.5337 45.1893 33.4259 45.3558 33.3181L46.9101 32.3477L45.9664 33.7493C45.6889 34.1267 45.4113 34.504 45.0783 34.8275C45.4113 35.2049 45.6889 35.5822 45.9664 35.9596Z" fill="#1E1E1E"/>
<path d="M69.2927 11.027C69.2927 11.1351 69.2927 11.2432 69.2375 11.2973C69.2375 11.3514 69.1823 11.4054 69.1823 11.5135C69.1823 11.5676 69.1271 11.5676 69.0719 11.6216C69.0167 11.6216 69.0167 11.6757 68.9615 11.6757H62.779C62.7238 11.6757 62.6686 11.6757 62.6686 11.6216C62.6134 11.6216 62.6134 11.5676 62.5582 11.5135C62.5582 11.4595 62.5582 11.3514 62.5582 11.2973C62.5582 11.1892 62.503 11.1351 62.503 11.027C62.503 10.9189 62.503 10.8649 62.5582 10.7568C62.5582 10.7027 62.6134 10.6486 62.6134 10.5405C62.6134 10.4865 62.6686 10.4324 62.7238 10.4324C62.779 10.4324 62.8342 10.3784 62.8342 10.3784H65.263V1.62162L62.9998 2.91892C62.8894 2.97297 62.779 3.02703 62.7238 3.02703C62.6686 3.08108 62.5582 3.02703 62.5582 2.97297C62.503 2.97297 62.4478 2.86486 62.4478 2.81081C62.4478 2.59459 62.4478 2.43243 62.4478 2.21622C62.4478 2.16216 62.4478 2.10811 62.503 2.05405C62.503 2 62.5582 1.94595 62.5582 1.89189C62.6134 1.83784 62.6686 1.83784 62.6686 1.78378L65.3734 0.0540541C65.4286 0.0540541 65.4286 0 65.4839 0H65.6495C65.7047 0 65.7599 0 65.8703 0H66.1463C66.2567 0 66.3671 0 66.5327 0C66.5879 0 66.6983 0 66.7535 0.0540541C66.8087 0.0540541 66.8087 0.108108 66.8639 0.162162C66.8639 0.216216 66.8639 0.216216 66.8639 0.27027V10.4324H69.0167C69.0719 10.4324 69.1271 10.4324 69.1823 10.4865C69.2375 10.5405 69.2375 10.5405 69.2927 10.5946C69.3479 10.6486 69.3479 10.7027 69.3479 10.8108C69.2927 10.8108 69.2927 10.9189 69.2927 11.027Z" fill="#1E1E1E"/>
<path d="M78.6769 7.89189C78.6769 8.48649 78.5665 9.02703 78.3457 9.56757C78.1249 10.0541 77.8489 10.4324 77.4625 10.8108C77.0761 11.1351 76.5793 11.4054 76.0824 11.5676C75.4752 11.7297 74.868 11.8378 74.2608 11.8378C73.9296 11.8378 73.5432 11.8378 73.212 11.7838C72.936 11.7297 72.6048 11.6757 72.3288 11.5676C72.108 11.5135 71.8872 11.4595 71.7216 11.3514C71.6112 11.2973 71.5008 11.2432 71.3904 11.1892C71.3352 11.1351 71.3352 11.1351 71.28 11.0811C71.28 11.027 71.2248 10.973 71.2248 10.973C71.2248 10.9189 71.1696 10.8649 71.1696 10.7568C71.1696 10.7027 71.1696 10.5946 71.1696 10.4865C71.1696 10.3784 71.1696 10.3243 71.1696 10.2162C71.1696 10.1622 71.1696 10.1081 71.2248 10C71.2248 9.94595 71.28 9.94594 71.3352 9.89189C71.3904 9.89189 71.3904 9.83784 71.4456 9.83784C71.556 9.83784 71.6664 9.89189 71.7216 9.94595C71.8872 10.0541 72.0528 10.1081 72.2184 10.1622C72.4944 10.2703 72.7704 10.3243 73.0464 10.4324C73.4328 10.5405 73.8192 10.5405 74.2056 10.5405C74.592 10.5405 74.9784 10.4865 75.3096 10.3784C75.6408 10.2703 75.9168 10.1622 76.1928 9.94595C76.4688 9.72973 76.6345 9.45946 76.8001 9.18919C76.9657 8.81081 77.0209 8.43243 77.0209 8.05405C77.0209 7.72973 76.9657 7.40541 76.8553 7.08108C76.7449 6.81081 76.524 6.54054 76.3032 6.37838C76.0272 6.16216 75.696 6.05405 75.3648 5.94595C74.9232 5.83784 74.4816 5.78378 73.9848 5.78378C73.6536 5.78378 73.3224 5.78378 73.0464 5.83784C72.8256 5.89189 72.5496 5.89189 72.2736 5.89189C72.1632 5.89189 71.9976 5.83784 71.8872 5.78378C71.832 5.62162 71.7768 5.51351 71.7768 5.35135V0.648649C71.7768 0.486486 71.832 0.324324 71.9424 0.216216C72.0528 0.108108 72.2184 0.0540541 72.3288 0.0540541H77.5729C77.6281 0.0540541 77.6833 0.0540541 77.7385 0.108108C77.7937 0.162162 77.8489 0.162162 77.8489 0.216216C77.9041 0.27027 77.9041 0.378378 77.9041 0.432432C77.9041 0.540541 77.9041 0.648649 77.9041 0.702703C77.9041 0.864865 77.9041 1.02703 77.7937 1.18919C77.7385 1.2973 77.6833 1.35135 77.5729 1.35135H73.3224V4.59459C73.5432 4.54054 73.7088 4.54054 73.9296 4.54054H74.6472C75.1992 4.54054 75.8064 4.59459 76.3584 4.75676C76.8001 4.91892 77.2417 5.13513 77.5729 5.40541C77.9041 5.67568 78.1249 6.05405 78.2905 6.43243C78.5665 6.97297 78.6769 7.45946 78.6769 7.89189Z" fill="#1E1E1E"/>
<path d="M66.5879 19.7838C66.5879 19.8378 66.6431 19.8378 66.6431 19.8919C66.6431 19.9459 66.6431 19.9459 66.5879 19.9459C66.5327 19.9459 66.5327 20 66.4775 20H66.0359C66.0359 20 65.9807 20 65.9807 19.9459C65.9807 19.9459 65.9807 19.8919 65.9255 19.8919L65.3182 18.2162H62.5582L61.951 19.8919C61.951 19.8919 61.951 19.9459 61.8958 19.9459L61.8406 20H61.4542C61.399 20 61.399 20 61.3438 19.9459L61.2886 19.8919C61.2886 19.8378 61.2886 19.7838 61.3438 19.7838L63.607 13.8378L63.6622 13.7838C63.7174 13.7838 63.7174 13.7297 63.7726 13.7297C63.8278 13.7297 63.8278 13.7297 63.883 13.7297C63.9382 13.7297 63.9934 13.7297 64.0486 13.7297C64.1038 13.7297 64.159 13.7297 64.2142 13.7297C64.2694 13.7297 64.2694 13.7297 64.3246 13.7297C64.3246 13.7297 64.3798 13.7297 64.3798 13.7838L64.435 13.8378L66.5879 19.7838ZM63.9382 14.3243L62.7238 17.6757H65.1526L63.9382 14.3243Z" fill="#1E1E1E"/>
<path d="M70.8383 14C70.8383 14.0541 70.8383 14.0541 70.8383 14.1081V14.1622L70.7831 14.2162H68.7959V19.8919L68.7407 19.9459H68.1887C68.1335 19.9459 68.1335 19.8919 68.1335 19.8378V14.2162H66.1463C66.0911 14.2162 66.0911 14.1622 66.0911 14.1622V14.1081C66.0911 14.0541 66.0911 14.0541 66.0911 14C66.0911 13.9459 66.0911 13.9459 66.0911 13.8919C66.0911 13.8378 66.0911 13.8378 66.0911 13.7838L66.1463 13.7297H70.6727L70.7279 13.7838C70.7279 13.8378 70.7279 13.8378 70.7279 13.8919C70.8383 13.8919 70.8383 13.9459 70.8383 14Z" fill="#1E1E1E"/>
<path d="M78.5665 19.8919C78.5665 19.9459 78.5113 20 78.5113 20H78.0145C77.9593 20 77.9593 19.9459 77.9593 19.8919V14.2162L75.42 19.8919L75.3648 19.9459H75.2544C75.1992 19.9459 75.1992 19.9459 75.144 19.9459C75.0888 19.9459 75.0888 19.9459 75.0336 19.9459C74.9784 19.9459 74.9784 19.9459 74.9232 19.9459H74.868V19.8919L72.4944 14.2162V19.9459L72.4392 20H71.8872C71.8872 20 71.832 20 71.832 19.9459V14C71.832 13.8919 71.832 13.8378 71.9424 13.7838C71.9976 13.7297 72.0528 13.7297 72.108 13.7297H72.4392C72.4944 13.7297 72.6048 13.7297 72.66 13.7297C72.7152 13.7297 72.7704 13.7838 72.8256 13.7838C72.8808 13.8378 72.936 13.8378 72.936 13.8919C72.9912 13.9459 72.9912 14 73.0464 14.0541L75.144 19.0811L77.3521 14.1081C77.4073 14.0541 77.4073 13.9459 77.4625 13.8919C77.5177 13.8378 77.5177 13.7838 77.5729 13.7838C77.6281 13.7297 77.6833 13.7297 77.6833 13.7297C77.7385 13.7297 77.7937 13.7297 77.8489 13.7297H78.2353C78.2905 13.7297 78.2905 13.7297 78.3457 13.7297C78.4009 13.7297 78.4009 13.7297 78.4561 13.7838C78.5113 13.7838 78.5113 13.8378 78.5113 13.8919C78.5113 13.9459 78.5113 14 78.5113 14.0541L78.5665 19.8919Z" fill="#1E1E1E"/>
<path d="M66.7888 51C66.7333 51 66.6778 51 66.6223 51L66.4003 50.8919C60.4066 48.2973 58.1868 42.8919 57.4098 38.8919C57.0768 37.3243 56.9658 35.7568 56.9658 34.1892V33.6486C56.9658 33.4865 57.1323 33.3243 57.2988 33.3243H57.7983C59.2412 33.3243 60.4066 32.5676 60.4066 31.7568V31.3243C60.4621 31.1622 60.6286 31 60.7951 31H72.7824C72.9489 31 73.1154 31.1622 73.1154 31.3243V31.7568C73.1154 32.6216 74.3363 33.3243 75.7793 33.3243H76.2787C76.4452 33.3243 76.6117 33.4865 76.6117 33.6486V34.1351C76.6672 35.3784 76.8337 46.6216 67.1772 50.7838L66.9553 50.8919C66.8998 51 66.8443 51 66.7888 51ZM57.6873 34.027V34.1892C57.6318 35.7027 57.7428 37.2162 58.0758 38.7297C58.8527 42.6757 60.9616 47.8108 66.6778 50.2432L66.7888 50.2973L66.8998 50.2432C76.1122 46.2973 75.9458 35.4324 75.8903 34.2432V34.027H75.7238C73.8924 34.027 72.394 33 72.394 31.8108V31.6486H61.1281V31.7568C61.1281 33 59.6297 33.973 57.7983 33.973L57.6873 34.027Z" fill="#1E1E1E"/>
<path d="M66.2338 41.3243C66.2338 41.7568 66.1783 42.1351 66.0118 42.5135C65.8453 42.8378 65.6233 43.1622 65.3458 43.3784C65.0684 43.6486 64.7354 43.8108 64.3469 43.9189C63.9584 44.027 63.5145 44.1351 63.0705 44.0811C62.793 44.0811 62.571 44.0811 62.2935 44.027C62.0715 43.973 61.8495 43.9189 61.6276 43.8649C61.4611 43.8108 61.2946 43.7568 61.1836 43.7027C61.1281 43.7027 61.0171 43.6486 60.9616 43.5946V43.5405C60.9616 43.4865 60.9616 43.4865 60.9616 43.4324C60.9616 43.3243 60.9616 43.2162 60.9616 43.1622C60.9616 43.1081 60.9616 43.1081 61.0171 43.0541C61.0171 43 61.0726 43 61.0726 43H61.1281C61.1836 43 61.2946 43.0541 61.3501 43.1081C61.4611 43.1622 61.5721 43.2162 61.6831 43.2703C61.905 43.3243 62.0715 43.4324 62.2935 43.4324C62.571 43.4865 62.8485 43.5405 63.1815 43.5405C63.459 43.5405 63.7919 43.4865 64.0694 43.4324C64.3469 43.3784 64.5689 43.2162 64.7909 43.0541C65.0129 42.8919 65.1794 42.6757 65.2904 42.4054C65.4013 42.1351 65.4568 41.8108 65.4568 41.4865C65.4568 41.2162 65.4013 40.9459 65.2904 40.7297C65.1794 40.5135 65.0129 40.2973 64.8464 40.1351C64.6244 39.973 64.3469 39.8649 64.0694 39.8108C63.7364 39.7568 63.348 39.7027 62.9595 39.7027C62.7375 39.7027 62.46 39.7027 62.238 39.7568C62.0715 39.6486 61.905 39.6486 61.7386 39.6486C61.6276 39.6486 61.5721 39.6486 61.4611 39.5405C61.4056 39.4324 61.3501 39.3243 61.3501 39.2162V35.9189C61.3501 35.8108 61.4056 35.7027 61.4611 35.6486C61.5166 35.5946 61.6276 35.5405 61.7386 35.5405H65.4568C65.5123 35.5405 65.5123 35.5405 65.5678 35.5405C65.6233 35.5405 65.6233 35.5946 65.6788 35.5946C65.6788 35.6486 65.7343 35.6486 65.7343 35.7027C65.7343 35.7568 65.7343 35.8108 65.7343 35.8649C65.7343 35.973 65.7343 36.027 65.6788 36.1351C65.6233 36.1892 65.5678 36.2432 65.5123 36.2432H62.1825V38.9459C62.349 38.9459 62.5155 38.8919 62.682 38.8919H63.2925C63.7364 38.8919 64.1804 38.9459 64.6244 39.0541C64.9574 39.1622 65.2904 39.3243 65.5678 39.5405C65.7898 39.7568 66.0118 40.027 66.1228 40.2973C66.1783 40.6757 66.2338 41 66.2338 41.3243Z" fill="#1E1E1E"/>
<path d="M72.7269 39.7568C72.7269 40.3514 72.6714 40.9459 72.5604 41.5405C72.4494 42.027 72.283 42.5135 72.061 42.9459C71.839 43.3243 71.506 43.6486 71.1175 43.8649C70.6735 44.0811 70.1741 44.1892 69.6746 44.1892C69.2306 44.1892 68.7312 44.1351 68.3427 43.9189C67.9542 43.7568 67.6767 43.4324 67.4547 43.1081C67.2327 42.6757 67.0663 42.2432 66.9553 41.7568C66.8443 41.1622 66.7888 40.5135 66.7888 39.8649C66.7888 39.2703 66.8443 38.6757 66.9553 38.1351C67.0663 37.6486 67.2327 37.1622 67.4547 36.7297C67.6767 36.3514 68.0097 36.027 68.3982 35.8108C68.8422 35.5946 69.3416 35.4865 69.8411 35.4865C70.2851 35.4865 70.7845 35.5946 71.173 35.7568C71.5615 35.9189 71.839 36.2432 72.061 36.5676C72.283 37 72.5049 37.4324 72.5604 37.9189C72.6714 38.5135 72.7269 39.1622 72.7269 39.7568ZM71.839 39.8649C71.839 39.4324 71.839 39.0541 71.7835 38.6757C71.728 38.3514 71.6725 38.027 71.617 37.7568C71.5615 37.4865 71.4505 37.2703 71.3395 37.0541C71.2285 36.8378 71.1175 36.6757 70.951 36.5676C70.7845 36.4595 70.6181 36.3514 70.4516 36.2432C70.2296 36.1892 70.0076 36.1351 69.7856 36.1351C69.3971 36.1351 69.0086 36.2432 68.7312 36.4595C68.4537 36.6757 68.2317 36.9459 68.0652 37.2703C67.8987 37.6486 67.7877 38.027 67.7322 38.4054C67.6767 38.8378 67.6767 39.3243 67.6767 39.7568C67.6767 40.2973 67.7322 40.8919 67.7877 41.4324C67.8432 41.8108 67.9542 42.2432 68.1762 42.5676C68.3427 42.8378 68.5647 43.1081 68.8422 43.2162C69.1196 43.3784 69.4526 43.4324 69.7856 43.4324C70.0631 43.4324 70.3406 43.3784 70.5626 43.3243C70.7845 43.2162 70.951 43.1081 71.062 42.9459C71.2285 42.7838 71.3395 42.5676 71.4505 42.3514C71.5615 42.1351 71.617 41.8649 71.6725 41.5946C71.728 41.3243 71.7835 41.0541 71.7835 40.7297C71.839 40.4595 71.839 40.1351 71.839 39.8649Z" fill="#1E1E1E"/>
</g>
</svg>
