<svg width="33" height="33" viewBox="0 0 33 33" fill="none" xmlns="http://www.w3.org/2000/svg">
<path fill-rule="evenodd" clip-rule="evenodd" d="M6.29165 4.83325C6.29165 2.41701 8.2504 0.458252 10.6666 0.458252H22.3332C24.7495 0.458252 26.7082 2.417 26.7082 4.83325H28.1666C30.5829 4.83325 32.5416 6.79201 32.5416 9.20825V10.1502C32.5416 11.9392 31.4525 13.5479 29.7915 14.2123L25.2952 16.0108C24.6616 17.1766 23.7304 18.3541 22.3674 19.2628C21.1827 20.0526 19.7264 20.6026 17.9583 20.7972V23.7916H20.875C23.2912 23.7916 25.25 25.7503 25.25 28.1666V29.6249C25.25 31.2357 23.9441 32.5416 22.3333 32.5416H10.6666C9.05582 32.5416 7.74998 31.2357 7.74998 29.6249V28.1666C7.74998 25.7503 9.70873 23.7916 12.125 23.7916H15.0416V20.7972C13.2735 20.6026 11.8171 20.0526 10.6324 19.2628C9.26938 18.3541 8.3382 17.1766 7.70462 16.0108L3.20848 14.2123C1.54747 13.5479 0.458313 11.9392 0.458313 10.1502V9.20825C0.458313 6.79201 2.41707 4.83325 4.83331 4.83325H6.29165ZM6.29165 7.74992H4.83331C4.0279 7.74992 3.37498 8.40284 3.37498 9.20825V10.1502C3.37498 10.7466 3.73803 11.2828 4.2917 11.5043L6.46529 12.3737C6.36739 11.8132 6.29256 11.2385 6.29165 10.6681L6.29165 7.74992ZM26.7082 10.6666V7.74992H28.1666C28.9721 7.74992 29.625 8.40284 29.625 9.20825V10.1502C29.625 10.7466 29.2619 11.2828 28.7083 11.5043L26.5346 12.3737C26.6309 11.8094 26.7082 11.2395 26.7082 10.6666ZM10.6666 3.37492C9.86123 3.37492 9.20831 4.02784 9.20831 4.83325V10.6623L9.20831 10.6641C9.20831 10.6665 9.20831 10.6677 9.20831 10.6641C9.21573 11.0423 9.26309 11.4215 9.32518 11.794C9.44597 12.5188 9.68485 13.463 10.1481 14.3894C10.6084 15.3102 11.2761 16.1865 12.2503 16.836C13.2153 17.4794 14.5676 17.9583 16.4999 17.9583C18.4322 17.9583 19.7845 17.4794 20.7496 16.836C21.7238 16.1865 22.3914 15.3101 22.8518 14.3894C23.315 13.4629 23.5539 12.5188 23.6747 11.794C23.7369 11.4211 23.7814 11.0435 23.7916 10.6653V4.83325C23.7916 4.02784 23.1387 3.37492 22.3332 3.37492H10.6666ZM12.125 26.7083C11.3196 26.7083 10.6666 27.3612 10.6666 28.1666V29.6249H22.3333V28.1666C22.3333 27.3612 21.6804 26.7083 20.875 26.7083H12.125Z" fill="#908F8F"/>
</svg>
