<svg width="37" height="35" viewBox="0 0 37 35" fill="none" xmlns="http://www.w3.org/2000/svg">
<path d="M7.36618 9.01234C8.94864 9.23404 10.3992 9.88941 11.5607 10.9076C13.5325 12.6359 16.0689 13.6491 18.7031 13.7606C18.8648 13.7674 19.0261 13.7709 19.1875 13.7708C21.6922 13.7708 24.1512 12.9504 26.1595 11.4357C26.9736 10.8217 27.6956 10.1091 28.3167 9.31368C29.0229 9.94948 29.6679 10.6538 30.236 11.4147C30.3752 11.6012 30.5887 11.6997 30.8048 11.6997C30.9523 11.6997 31.1012 11.6539 31.2286 11.5588C31.5425 11.3245 31.6069 10.8801 31.3726 10.5662C30.6286 9.56963 29.7641 8.6617 28.8085 7.86441C28.4199 6.71415 27.8501 5.62998 27.1125 4.63908C25.5989 2.60563 23.5097 1.15856 21.0708 0.454249C18.7116 -0.226945 16.1475 -0.139642 13.8507 0.700274C13.4828 0.83474 13.2937 1.24204 13.4282 1.6099C13.5627 1.9777 13.9699 2.16692 14.3378 2.03238C16.3538 1.29509 18.6052 1.21863 20.6772 1.81699C22.8159 2.43457 24.6477 3.70327 25.9747 5.48601C26.1612 5.73657 26.3339 5.99458 26.4957 6.25791C26.294 6.14288 26.0907 6.03097 25.8842 5.92508C23.8206 4.86694 21.6039 4.28887 19.2868 4.20043L17.6733 2.7779C17.3795 2.5189 16.9314 2.54705 16.6723 2.84088C16.4133 3.1347 16.4415 3.58285 16.7353 3.84185L17.2021 4.25334C16.1248 4.35163 15.0633 4.55893 14.0315 4.8734C13.6569 4.98758 13.4457 5.38388 13.5599 5.75856C13.674 6.13323 14.0708 6.34458 14.445 6.23018C15.8053 5.81558 17.2234 5.60537 18.6599 5.60537C19.9072 5.60537 21.1238 5.76097 22.301 6.06707L20.5959 7.46548C20.2931 7.71385 20.2489 8.16072 20.4972 8.46362C20.6375 8.63461 20.8409 8.72312 21.046 8.72312C21.2042 8.72312 21.3635 8.67043 21.4954 8.56227L23.9035 6.58734C24.3551 6.76415 24.8001 6.96315 25.2371 7.18726C25.9286 7.54179 26.5911 7.95512 27.218 8.41802C26.6689 9.12546 26.0281 9.75807 25.3053 10.3033C23.4293 11.7182 21.1056 12.4426 18.7629 12.3436C16.4507 12.2457 14.225 11.3569 12.4956 9.84105C11.3371 8.8256 9.93848 8.11661 8.41148 7.76456C8.72361 6.98741 9.12878 6.25508 9.62104 5.57963C9.85167 5.26311 9.7821 4.81943 9.46558 4.58879C9.14906 4.35823 8.70531 4.42773 8.47467 4.74432C7.73419 5.76062 7.16661 6.88897 6.78775 8.0981C6.72548 8.29696 6.75378 8.51313 6.8652 8.68922C6.97661 8.86518 7.1598 8.9834 7.36618 9.01234Z" fill="#908F8F"/>
<path d="M14.1508 28.9119C14.6616 26.3403 14.2708 23.637 13.0503 21.2999C11.8129 18.9306 9.7738 17.0501 7.30866 16.005C6.36996 15.607 5.3921 15.3363 4.39261 15.1962C4.59006 14.2672 4.87743 13.357 5.25217 12.4851C5.40685 12.1253 5.24047 11.7082 4.88069 11.5535C4.52048 11.3988 4.10368 11.5652 3.949 11.9251C3.45795 13.0677 3.10391 14.2703 2.89122 15.4966C2.08946 16.4082 1.43535 17.4438 0.946001 18.5781C-0.275398 21.4089 -0.315326 24.552 0.83352 27.4282C1.98832 30.3196 4.20127 32.5851 7.06477 33.8075C8.50382 34.4219 10.0279 34.7323 11.567 34.7323C12.412 34.7323 13.2618 34.6387 14.1039 34.4504C14.3072 34.4049 14.4804 34.2723 14.5771 34.0877C14.674 33.9032 14.6848 33.6854 14.6066 33.4923C14.0075 32.0108 13.8498 30.427 14.1508 28.9119ZM7.62171 32.5029C5.10771 31.4296 3.16469 29.4405 2.1508 26.902C1.14288 24.3785 1.17756 21.6219 2.24839 19.1398C2.37215 18.853 2.50917 18.5744 2.6564 18.3027C2.6576 18.5348 2.66229 18.7669 2.67385 18.9986C2.7893 21.3148 3.39702 23.5237 4.47906 25.5745L4.05389 27.6831C3.97645 28.0671 4.22496 28.4411 4.60892 28.5185C4.65622 28.528 4.70339 28.5326 4.74984 28.5326C5.08047 28.5326 5.37643 28.3 5.4443 27.9634L5.56727 27.3535C6.19102 28.2373 6.90137 29.053 7.68951 29.7892C7.82624 29.917 8.00007 29.9802 8.17347 29.9802C8.36312 29.9802 8.55226 29.9046 8.6919 29.755C8.95935 29.4688 8.94403 29.02 8.65779 28.7527C7.61866 27.7819 6.72754 26.6589 6.00925 25.4149C5.38557 24.3347 4.91204 23.2032 4.58849 22.0307L6.65215 22.8082C6.73449 22.8393 6.81903 22.854 6.902 22.854C7.18874 22.854 7.45873 22.6788 7.56575 22.3946C7.70384 22.0281 7.51873 21.6189 7.15214 21.4809L4.23772 20.3828C4.16503 19.9034 4.11489 19.4184 4.09042 18.9278C4.05177 18.1518 4.07836 17.3713 4.16581 16.597C5.05303 16.7188 5.92138 16.9574 6.75491 17.3108C8.91814 18.2279 10.7073 19.8778 11.7929 21.9565C12.8642 24.0079 13.2074 26.3799 12.7594 28.6355C12.4592 30.1466 12.5445 31.7122 13.0032 33.2108C11.1746 33.4724 9.32934 33.2319 7.62171 32.5029Z" fill="#908F8F"/>
<path d="M36.2305 21.3556C35.94 18.9493 34.9155 16.7301 33.2676 14.9381C33.1265 14.7847 32.9236 14.7009 32.717 14.7095C32.5087 14.7179 32.3148 14.8175 32.1866 14.9817C31.2033 16.2414 29.9105 17.1698 28.4479 17.6667C25.9654 18.5101 23.8196 20.2002 22.406 22.4257C20.9728 24.6819 20.3638 27.3881 20.6912 30.0456C20.8159 31.0576 21.0704 32.0397 21.4488 32.9754C20.5455 33.2688 19.6136 33.4751 18.6711 33.5865C18.2822 33.6324 18.0041 33.9851 18.05 34.374C18.0927 34.7347 18.399 35 18.7534 35C18.7812 35 18.8093 34.9984 18.8376 34.995C20.0731 34.849 21.2921 34.5541 22.4607 34.125C23.2051 34.2741 23.9623 34.3497 24.7255 34.3497C25.1823 34.3497 25.6413 34.3229 26.1008 34.2693C29.1631 33.9116 31.905 32.3747 33.8215 29.9416C35.7481 27.4958 36.6036 24.4466 36.2305 21.3556ZM32.7073 29.0639C31.0259 31.1985 28.6212 32.5468 25.9362 32.8605C25.626 32.8967 25.3162 32.9173 25.0072 32.9258C25.2076 32.8087 25.4062 32.6885 25.6011 32.5627C27.5493 31.3047 29.1584 29.6739 30.3935 27.7115L32.4322 27.0254C32.8034 26.9004 33.0031 26.4982 32.8781 26.127C32.7532 25.7559 32.3512 25.556 31.9797 25.6811L31.39 25.8796C31.8435 24.8975 32.1947 23.8746 32.4383 22.8238C32.5268 22.4423 32.2891 22.0612 31.9076 21.9728C31.5261 21.8843 31.145 22.1219 31.0566 22.5035C30.7354 23.889 30.2084 25.2222 29.4902 26.4661C28.8665 27.5463 28.1234 28.5221 27.2698 29.3885L26.9113 27.2126C26.8476 26.8262 26.4837 26.5645 26.0962 26.6281C25.7097 26.6918 25.448 27.0567 25.5117 27.4432L26.018 30.5162C25.6391 30.8189 25.2443 31.1047 24.8316 31.3712C24.1788 31.7927 23.4897 32.1599 22.7754 32.4713C22.4372 31.6421 22.2097 30.7708 22.099 29.8722C21.8117 27.5402 22.3459 25.1658 23.6033 23.1863C24.8442 21.2328 26.7267 19.7495 28.9042 19.0098C30.3629 18.5142 31.6763 17.6575 32.7446 16.511C33.8857 17.964 34.5998 19.6823 34.8223 21.5256C35.1498 24.2394 34.3987 26.9166 32.7073 29.0639Z" fill="#908F8F"/>
<path d="M11.2894 3.5998C11.6811 3.5998 11.9987 3.28228 11.9987 2.89059C11.9987 2.49891 11.6811 2.18138 11.2894 2.18138C10.8978 2.18138 10.5802 2.49891 10.5802 2.89059C10.5802 3.28228 10.8978 3.5998 11.2894 3.5998Z" fill="#908F8F"/>
</svg>
