<svg width="166" height="27" viewBox="0 0 166 27" fill="none" xmlns="http://www.w3.org/2000/svg">
<g opacity="0.4">
<path d="M8.15189 26.9989C3.79182 27.0716 0.158439 23.5794 0.0131032 19.214C-0.132232 15.94 0.957784 12.9571 1.97513 10.4106C3.57382 6.70008 5.97185 3.35332 8.29722 0.370338C8.36989 0.297583 8.44256 0.224827 8.51523 0.152072L8.58789 0.079316C8.73323 -0.0661952 9.0239 0.00656037 9.09657 0.152072C9.09657 0.224827 9.16924 0.297583 9.16924 0.297583C9.53257 3.13505 10.9133 5.53599 12.2939 7.86416C12.8026 8.73723 13.3113 9.6103 13.82 10.5561C15.346 13.5391 16 16.1583 16 18.7775C16 23.1428 12.5846 26.7079 8.29722 26.8534L8.15189 26.9989ZM8.66056 1.31616C6.26253 4.15363 4.3005 7.35488 2.77448 10.7016C1.75713 13.1753 0.739781 16.0128 0.885116 19.1413C0.957784 23.1428 4.22783 26.2713 8.22456 26.1986C12.2213 26.1258 15.346 22.8518 15.2733 18.8503C15.346 16.3766 14.692 13.8301 13.166 11.0654C12.73 10.1923 12.2213 9.31928 11.7126 8.44621C10.4773 6.26354 9.16923 4.00812 8.66056 1.31616Z" fill="#1E1E1E"/>
<path d="M3.86449 22.4153C3.71916 22.4153 3.64649 22.3425 3.57382 22.2698C1.24845 18.8503 3.50115 13.9756 3.57382 13.7574C3.71916 13.5391 3.93716 13.5391 4.0825 13.6119C4.22783 13.6846 4.3005 13.9029 4.22783 14.0484C4.22783 14.1211 2.0478 18.7047 4.15516 21.7605C4.3005 21.906 4.22783 22.197 4.0825 22.2698C4.00983 22.4153 3.93716 22.4153 3.86449 22.4153Z" fill="#1E1E1E"/>
<path d="M57.3655 6.12973H55.2335C55.0203 6.12973 54.8071 5.98378 54.8071 5.69189V1.45946C54.8071 0.656757 55.4467 0 56.2284 0C57.0102 0 57.6497 0.656757 57.6497 1.45946V5.69189C57.7208 5.98378 57.5787 6.12973 57.3655 6.12973ZM55.6599 5.32703H56.9391V1.45946C56.9391 1.09459 56.6548 0.802703 56.2995 0.802703C55.9442 0.802703 55.6599 1.09459 55.6599 1.45946V5.32703Z" fill="#1E1E1E"/>
<path d="M48.7665 6.12973H46.6345C46.4213 6.12973 46.2081 5.98378 46.2081 5.69189V1.45946C46.2081 0.656757 46.8477 0 47.6294 0C48.4112 0 49.0508 0.656757 49.0508 1.45946V5.69189C49.1218 5.98378 48.9797 6.12973 48.7665 6.12973ZM47.0609 5.4H48.3401V1.45946C48.3401 1.09459 48.0558 0.802703 47.7005 0.802703C47.3452 0.802703 47.0609 1.09459 47.0609 1.45946V5.4Z" fill="#1E1E1E"/>
<path d="M59 7.15135V9.70541C59 9.92432 58.8579 10.1432 58.6447 10.1432H45.4264C45.2132 10.1432 45 9.92432 45 9.70541V7.15135C45 6.93243 45.1421 6.71351 45.4264 6.71351H58.5736C58.7868 6.71351 59 6.93243 59 7.15135ZM58.1472 9.26757V7.51622H45.7817V9.26757H58.1472Z" fill="#1E1E1E"/>
<path d="M54.3807 20.2135V26.5622C54.3807 26.7811 54.2386 27 54.0254 27H50.1168C49.9036 27 49.6904 26.8541 49.6904 26.6351V20.2865C49.6904 20.0676 49.9036 19.8486 50.1168 19.8486H53.9543C54.1675 19.8486 54.3807 19.9946 54.3807 20.2135ZM53.599 26.1973V20.6514H50.401V26.1973H53.599Z" fill="#1E1E1E"/>
<path d="M59 7.15135V14.3757C59 17.0757 56.868 19.3378 54.1675 19.3378H49.8325C47.203 19.3378 45 17.1486 45 14.3757V7.15135C45 6.93243 45.1421 6.71351 45.4264 6.71351H58.5736C58.7868 6.71351 59 6.93243 59 7.15135ZM45.7817 14.3027C45.7817 16.5649 47.5584 18.3892 49.7614 18.3892H54.0964C56.2995 18.3892 58.0761 16.5649 58.0761 14.3027V7.51622H45.7817V14.3027Z" fill="#1E1E1E"/>
<path d="M90.0399 25.8261C88.6534 24.439 88.6534 22.2488 90.0399 20.9346C90.1128 20.8616 90.1858 20.7886 90.2588 20.7156L96.3155 15.7512C97.0453 15.1671 97.3372 14.145 97.0453 13.269C96.6804 12.2469 96.1696 11.2978 95.8047 10.7137C95.5858 10.3487 95.6588 9.91065 95.9507 9.61862L105.218 0.273775C105.583 -0.0912583 106.167 -0.0912583 106.532 0.273775L115.726 9.47261C116.091 9.83764 116.091 10.4217 115.726 10.7867L106.386 20.1316C106.094 20.4236 105.656 20.4966 105.291 20.2776C104.707 19.9126 103.759 19.4015 102.737 19.0365C101.861 18.7444 100.84 19.0365 100.256 19.7665L95.2939 25.7531C94.1264 27.2132 91.9372 27.4322 90.4777 26.1911C90.4047 26.1181 90.3318 26.0451 90.2588 25.9721L90.0399 25.8261ZM98.1399 15.6052C98.1399 15.6052 98.0669 15.6782 90.9885 21.5187C90.9155 21.5917 90.8426 21.5917 90.8426 21.6647C89.8939 22.6138 89.8939 24.2199 90.8426 25.169C91.7912 26.1181 93.3966 26.1181 94.3453 25.169C94.4182 25.096 94.4912 25.023 94.4912 25.023L100.402 17.8684C100.402 17.8684 100.694 17.5033 101.643 17.6493C102.445 17.7224 103.467 18.1604 104.707 18.8905C105.218 19.1825 105.802 19.1095 106.24 18.7444L107.261 17.5033C107.772 16.9923 107.772 16.2622 107.261 15.7512L100.183 8.74254C99.6723 8.23149 98.9426 8.23149 98.4318 8.74254L97.3372 9.83764C96.9723 10.2027 96.8264 10.8597 97.1912 11.3708C97.9209 12.5389 98.3588 13.561 98.4318 14.4371C98.5047 15.3131 98.2128 15.6052 98.1399 15.6052ZM107.991 4.14312C107.043 3.26705 104.999 4.65417 104.634 4.9462C104.197 5.23822 103.321 5.53025 102.883 5.31123C102.445 5.09221 101.861 5.23822 101.497 5.60326L101.059 6.0413C100.548 6.55234 100.548 7.35542 101.059 7.79346L108.356 15.0941C108.867 15.6052 109.67 15.6052 110.107 15.0941L110.983 14.218C111.275 13.926 111.421 13.488 111.348 13.0499C111.348 12.9769 111.348 12.8309 111.421 12.6849C111.786 11.8088 112.297 10.4217 111.567 9.69163C111.567 9.69163 111.567 9.69163 111.494 9.61862C110.764 8.96156 109.743 9.32659 108.429 9.76463L108.137 9.91065C107.918 9.98365 107.699 9.98365 107.553 9.83764C107.407 9.69163 107.334 9.47261 107.334 9.18058C107.334 8.81555 107.407 8.45051 107.553 8.15849C108.502 5.96829 108.575 4.80018 107.991 4.14312Z" fill="#1E1E1E"/>
<path d="M163.577 11.3531C163.797 11.3531 164.017 11.2075 164.017 10.9164C164.017 10.6981 163.871 10.4798 163.577 10.4798H163.21V7.56873C162.916 7.3504 162.696 7.13208 162.476 6.91375L162.402 6.98652V10.407H147.056V6.33154H159.685C159.832 6.04043 160.052 5.8221 160.273 5.531H147.056V1.67385H162.402V3.34771C162.402 3.34771 162.402 3.34771 162.476 3.42049C162.696 3.20216 162.99 2.98383 163.21 2.83827V1.67385H163.577C163.724 1.67385 163.944 1.45553 163.944 1.2372C163.944 1.01887 163.797 0.800539 163.503 0.800539H163.21V0.436658C163.21 0.218329 163.063 0.0727763 162.769 0C162.549 0 162.402 0.145553 162.329 0.363881V0.800539H147.056V0.436658C147.056 0.218329 146.909 0 146.689 0C146.469 0 146.248 0.145553 146.248 0.363881V0.873315H145.441C145.22 0.873315 145 1.01887 145 1.2372C145 1.45553 145.147 1.67385 145.367 1.67385H146.248V5.531H145.441C145.22 5.531 145.073 5.74933 145.073 5.96766C145.073 6.11321 145.22 6.25876 145.441 6.33154H146.248V10.5526H145.441C145.22 10.5526 145.073 10.6981 145 10.9164C145 11.1348 145.147 11.2803 145.441 11.3531H146.248V15.5741H145.441C145.22 15.5741 145.073 15.7197 145 15.938C145 16.1563 145.147 16.3747 145.367 16.3747H146.175V20.5957H145.441C145.22 20.5957 145 20.7412 145 21.0323C145 21.2507 145.147 21.3962 145.367 21.469H146.175V25.3261H145.441C145.22 25.3261 145.073 25.4717 145 25.69C145 25.9084 145.147 26.1267 145.441 26.1267H146.248V26.5633C146.248 26.7817 146.395 26.9272 146.615 27C146.836 27 146.983 26.8544 147.056 26.5633V26.1267H162.402V26.5633C162.402 26.7817 162.549 27 162.769 27C162.99 27 163.21 26.8544 163.21 26.6361V26.1267H163.577C163.797 26.1267 164.017 25.9811 164.017 25.69C164.017 25.4717 163.871 25.3261 163.65 25.2534H163.21V21.3962H163.503C163.724 21.3962 163.871 21.2507 163.944 20.9596C163.944 20.7412 163.797 20.5957 163.577 20.5229H163.21V16.3019H163.503C163.724 16.3019 163.871 16.0836 163.871 15.8652C163.871 15.7197 163.724 15.5741 163.503 15.5013H163.21V11.2803H163.577V11.3531ZM162.402 25.2534H147.056V21.3962H162.402V25.2534ZM162.402 20.5957H147.056V16.3747H162.402V20.5957ZM162.402 15.5741H147.056V11.3531H162.402V15.5741Z" fill="#1E1E1E"/>
<path d="M164.678 6.69542L166 8.73315L163.944 7.42318C163.724 7.27763 163.43 7.0593 163.21 6.91375C162.99 6.69542 162.696 6.47709 162.476 6.25876L162.402 6.33154C161.962 6.69542 161.448 7.0593 161.007 7.42318L158.878 8.73315L160.199 6.76819C160.273 6.54987 160.346 6.47709 160.42 6.33154C160.64 6.04043 160.86 5.8221 161.08 5.531C161.154 5.38544 161.301 5.31267 161.374 5.23989C160.934 4.73046 160.566 4.2938 160.199 3.71159L158.878 1.74663L160.934 3.0566C161.448 3.42049 161.962 3.78437 162.402 4.14825C162.402 4.14825 162.402 4.14825 162.402 4.22102C162.622 4.0027 162.916 3.78437 163.136 3.63881C163.43 3.42049 163.65 3.27493 163.871 3.12938L165.927 1.81941L164.678 3.71159C164.311 4.22102 163.944 4.73046 163.503 5.16712C163.944 5.67655 164.311 6.18598 164.678 6.69542Z" fill="#1E1E1E"/>
</g>
</svg>
