<svg width="31" height="33" viewBox="0 0 31 33" fill="none" xmlns="http://www.w3.org/2000/svg">
<path d="M21.6908 11.0938C22.2603 10.5243 23.1837 10.5243 23.7532 11.0938C24.3227 11.6633 24.3227 12.5867 23.7532 13.1562L15.3604 21.5475C14.2213 22.6863 12.3748 22.6862 11.2358 21.5473L8.63547 18.9469C8.06595 18.3774 8.06595 17.4541 8.63547 16.8845C9.20498 16.315 10.1283 16.315 10.6979 16.8845L12.2678 18.4544C12.8373 19.024 13.7606 19.024 14.3301 18.4544L21.6908 11.0938Z" fill="#908F8F"/>
<path fill-rule="evenodd" clip-rule="evenodd" d="M15.5 0.461182C14.0807 0.461182 13.024 1.03373 12.1258 1.52036C11.9167 1.63367 11.7162 1.74232 11.5217 1.83799C10.3914 2.39396 8.67875 3.05437 5.19745 3.2896C2.91217 3.44401 0.879026 5.30434 0.970152 7.80516C1.12004 11.9187 1.59723 16.1272 2.55693 19.6737C3.496 23.144 4.9829 26.3107 7.39939 27.9217C9.71033 29.4624 11.6111 30.7978 12.8827 31.7094C14.4442 32.8288 16.5558 32.8288 18.1173 31.7094C19.3889 30.7978 21.2897 29.4624 23.6006 27.9217C26.0171 26.3107 27.504 23.144 28.4431 19.6738C29.4028 16.1273 29.88 11.9188 30.0299 7.80516C30.121 5.30434 28.0878 3.44401 25.8026 3.2896C22.3212 3.05437 20.6086 2.39396 19.4783 1.83799C19.2839 1.74233 19.0834 1.6337 18.8743 1.52041C17.9761 1.03378 16.9193 0.461182 15.5 0.461182ZM5.39407 6.19963C9.23319 5.94023 11.3191 5.18809 12.8091 4.45516C13.2347 4.24577 13.5639 4.0713 13.8341 3.92804C14.5736 3.53607 14.8721 3.37785 15.5 3.37785C16.1279 3.37785 16.4264 3.53607 17.1659 3.92804C17.4361 4.0713 17.7653 4.24577 18.1909 4.45516C19.6809 5.18809 21.7668 5.94023 25.6059 6.19963C26.535 6.2624 27.1413 6.98025 27.1151 7.69896C26.9698 11.6885 26.5086 15.6567 25.6277 18.9119C24.7262 22.2434 23.4703 24.5032 21.9827 25.4949C19.6395 27.0571 17.7112 28.4118 16.418 29.3389C15.8723 29.7301 15.1277 29.7301 14.582 29.3389C13.2888 28.4118 11.3605 27.0571 9.01727 25.4949C7.52973 24.5032 6.27385 22.2433 5.37234 18.9119C4.49145 15.6566 4.03025 11.6884 3.88488 7.69895C3.8587 6.98025 4.46502 6.2624 5.39407 6.19963Z" fill="#908F8F"/>
</svg>
