<svg width="27" height="33" viewBox="0 0 27 33" fill="none" xmlns="http://www.w3.org/2000/svg">
<path fill-rule="evenodd" clip-rule="evenodd" d="M4.26136 2.99866C4.74275 1.48572 6.14788 0.458252 7.73557 0.458252H15.2144C17.8318 0.458252 19.5965 3.13448 18.5655 5.54025L16.3685 10.6666H22.6007C25.8787 10.6666 27.4915 14.6555 25.1347 16.9337L9.75288 31.8028C8.03603 33.4624 5.28129 31.563 6.22189 29.3683L10.4869 19.4166H4.02344C1.55592 19.4166 -0.198925 17.0167 0.549236 14.6653L4.26136 2.99866ZM7.73557 3.37492C7.41803 3.37492 7.137 3.58041 7.04072 3.883L3.3286 15.5497C3.17897 16.0199 3.52994 16.4999 4.02344 16.4999H12.2562C13.5126 16.4999 14.3596 17.7845 13.8647 18.9393L10.329 27.1892L23.1075 14.8367C23.5789 14.381 23.2563 13.5833 22.6007 13.5833H14.5992C13.3428 13.5833 12.4958 12.2987 12.9907 11.1439L15.8846 4.39132C16.0908 3.91016 15.7379 3.37492 15.2144 3.37492H7.73557Z" fill="#908F8F"/>
</svg>
