<svg width="291" height="27" viewBox="0 0 291 27" fill="none" xmlns="http://www.w3.org/2000/svg">
<g opacity="0.4">
<path d="M8.15189 26.9989C3.79182 27.0716 0.158439 23.5794 0.0131032 19.214C-0.132232 15.94 0.957784 12.9571 1.97513 10.4106C3.57382 6.70008 5.97185 3.35332 8.29722 0.370338C8.36989 0.297583 8.44256 0.224827 8.51523 0.152072L8.58789 0.079316C8.73323 -0.0661952 9.0239 0.00656037 9.09657 0.152072C9.09657 0.224827 9.16924 0.297583 9.16924 0.297583C9.53257 3.13505 10.9133 5.53599 12.2939 7.86416C12.8026 8.73723 13.3113 9.6103 13.82 10.5561C15.346 13.5391 16 16.1583 16 18.7775C16 23.1428 12.5846 26.7079 8.29722 26.8534L8.15189 26.9989ZM8.66056 1.31616C6.26253 4.15363 4.3005 7.35488 2.77448 10.7016C1.75713 13.1753 0.739781 16.0128 0.885116 19.1413C0.957784 23.1428 4.22783 26.2713 8.22456 26.1986C12.2213 26.1258 15.346 22.8518 15.2733 18.8503C15.346 16.3766 14.692 13.8301 13.166 11.0654C12.73 10.1923 12.2213 9.31928 11.7126 8.44621C10.4773 6.26354 9.16923 4.00812 8.66056 1.31616Z" fill="#1E1E1E"/>
<path d="M3.86449 22.4153C3.71916 22.4153 3.64649 22.3425 3.57382 22.2698C1.24845 18.8503 3.50115 13.9756 3.57382 13.7574C3.71916 13.5391 3.93716 13.5391 4.0825 13.6119C4.22783 13.6846 4.3005 13.9029 4.22783 14.0484C4.22783 14.1211 2.0478 18.7047 4.15516 21.7605C4.3005 21.906 4.22783 22.197 4.0825 22.2698C4.00983 22.4153 3.93716 22.4153 3.86449 22.4153Z" fill="#1E1E1E"/>
<path d="M58.748 6.17415H56.5799C56.3198 6.17415 56.1463 6.00205 56.1463 5.74389V1.5274C56.1463 0.666894 56.8401 0.0645382 57.6206 0.0645382C58.4011 0.0645382 59.0949 0.752945 59.0949 1.5274V5.74389C59.0949 6.00205 58.9214 6.17415 58.748 6.17415ZM58.3144 5.31364V1.5274C58.3144 1.1832 58.0542 0.838996 57.6206 0.838996C57.2737 0.838996 56.9268 1.09715 56.9268 1.5274V5.31364H58.3144Z" fill="#1E1E1E"/>
<path d="M49.8157 6.17415H47.6477C47.3875 6.17415 47.2141 6.00205 47.2141 5.74389V1.5274C47.2141 0.666894 47.9079 0.0645382 48.6883 0.0645382C49.4688 0.0645382 50.1626 0.752945 50.1626 1.5274V5.74389C50.2493 6.00205 50.0759 6.17415 49.8157 6.17415ZM48.0813 5.39969H49.4688V1.5274C49.4688 1.1832 49.122 0.838996 48.7751 0.838996C48.4282 0.838996 48.0813 1.09715 48.0813 1.5274V5.39969Z" fill="#1E1E1E"/>
<path d="M70.1084 26.9985C65.6856 27.0845 62.0434 23.5564 61.9566 19.1678C61.9566 16.156 62.6504 13.1443 63.9512 10.3906C65.5989 6.77651 67.6802 3.42052 70.2818 0.322691C70.3686 0.23664 70.4553 0.150589 70.542 0.150589L70.6287 0.0645382C70.7154 -0.0215127 70.8889 -0.0215127 70.9756 0.0645382C71.149 0.150589 71.2358 0.23664 71.2358 0.408741C71.5827 3.24842 73.0569 5.65784 74.3577 7.98122C74.878 8.84173 75.3984 9.78829 75.832 10.6488C77.2195 13.1443 78 15.9839 78 18.9097C78 23.2983 74.5312 26.8264 70.1951 26.9985H70.1084ZM70.542 1.26925C68.1138 4.10893 66.1192 7.29281 64.645 10.7348C63.3442 13.4024 62.7371 16.2421 62.7371 19.1678C62.8238 23.1262 66.1192 26.224 70.1084 26.224H70.2818C74.271 26.0519 77.393 22.868 77.393 18.9097C77.393 16.156 76.6125 13.4885 75.3117 11.079C74.878 10.2185 74.3577 9.27198 73.8374 8.41147C72.4499 6.0881 71.149 3.85078 70.542 1.26925Z" fill="#1E1E1E"/>
<path d="M60.3957 7.12071V9.70224C60.3957 9.96039 60.2222 10.1325 59.9621 10.1325H46.4336C46.1734 10.1325 46 9.96039 46 9.70224V7.12071C46 6.86256 46.1734 6.69045 46.4336 6.69045H60.0488C60.2222 6.69045 60.3957 6.86256 60.3957 7.12071ZM59.6152 9.27198V7.55096H46.7805V9.27198H59.6152Z" fill="#1E1E1E"/>
<path d="M55.626 20.2004V26.4822C55.626 26.7403 55.4526 26.9124 55.1924 26.9124H51.2033C50.9431 26.9124 50.7696 26.7403 50.7696 26.4822V20.2004C50.7696 19.9423 50.9431 19.7702 51.2033 19.7702H55.2791C55.4526 19.7702 55.626 20.0283 55.626 20.2004ZM54.8455 26.1379V20.6307H51.5501V26.1379H54.8455Z" fill="#1E1E1E"/>
<path d="M60.3957 7.12071V14.2629C60.3957 17.0166 58.1409 19.1678 55.4526 19.1678H50.9431C48.168 19.1678 46 16.9305 46 14.2629V7.12071C46 6.86256 46.1734 6.69045 46.4336 6.69045H60.0488C60.2222 6.69045 60.3957 6.86256 60.3957 7.12071ZM46.7805 14.2629C46.7805 16.5003 48.6016 18.3934 50.9431 18.3934H55.4526C57.7073 18.3934 59.6152 16.5863 59.6152 14.2629V7.46491H46.7805V14.2629Z" fill="#1E1E1E"/>
<path d="M66.6396 22.0075C66.4661 22.0075 66.2927 21.9215 66.206 21.7494C63.8645 18.3073 66.1192 13.4885 66.206 13.2303C66.2927 12.9722 66.6396 12.8861 66.8997 12.9722C67.1599 13.0582 67.2466 13.4024 67.1599 13.6606C67.1599 13.6606 65.0786 18.2213 67.0732 21.147C67.2466 21.4052 67.1599 21.6633 66.9865 21.8354C66.813 21.9215 66.7263 22.0075 66.6396 22.0075Z" fill="#1E1E1E"/>
<path d="M161.04 25.8261C159.653 24.439 159.653 22.2488 161.04 20.9346C161.113 20.8616 161.186 20.7886 161.259 20.7156L167.316 15.7512C168.045 15.1671 168.337 14.145 168.045 13.269C167.68 12.2469 167.17 11.2978 166.805 10.7137C166.586 10.3487 166.659 9.91065 166.951 9.61862L176.218 0.273775C176.583 -0.0912583 177.167 -0.0912583 177.532 0.273775L186.726 9.47261C187.091 9.83764 187.091 10.4217 186.726 10.7867L177.386 20.1316C177.094 20.4236 176.656 20.4966 176.291 20.2776C175.707 19.9126 174.759 19.4015 173.737 19.0365C172.861 18.7444 171.84 19.0365 171.256 19.7665L166.294 25.7531C165.126 27.2132 162.937 27.4322 161.478 26.1911C161.405 26.1181 161.332 26.0451 161.259 25.9721L161.04 25.8261ZM169.14 15.6052C169.14 15.6052 169.067 15.6782 161.989 21.5187C161.916 21.5917 161.843 21.5917 161.843 21.6647C160.894 22.6138 160.894 24.2199 161.843 25.169C162.791 26.1181 164.397 26.1181 165.345 25.169C165.418 25.096 165.491 25.023 165.491 25.023L171.402 17.8684C171.402 17.8684 171.694 17.5033 172.643 17.6493C173.445 17.7224 174.467 18.1604 175.707 18.8905C176.218 19.1825 176.802 19.1095 177.24 18.7444L178.261 17.5033C178.772 16.9923 178.772 16.2622 178.261 15.7512L171.183 8.74254C170.672 8.23149 169.943 8.23149 169.432 8.74254L168.337 9.83764C167.972 10.2027 167.826 10.8597 168.191 11.3708C168.921 12.5389 169.359 13.561 169.432 14.4371C169.505 15.3131 169.213 15.6052 169.14 15.6052ZM178.991 4.14312C178.043 3.26705 175.999 4.65417 175.634 4.9462C175.197 5.23822 174.321 5.53025 173.883 5.31123C173.445 5.09221 172.861 5.23822 172.497 5.60326L172.059 6.0413C171.548 6.55234 171.548 7.35542 172.059 7.79346L179.356 15.0941C179.867 15.6052 180.67 15.6052 181.107 15.0941L181.983 14.218C182.275 13.926 182.421 13.488 182.348 13.0499C182.348 12.9769 182.348 12.8309 182.421 12.6849C182.786 11.8088 183.297 10.4217 182.567 9.69163C182.567 9.69163 182.567 9.69163 182.494 9.61862C181.764 8.96156 180.743 9.32659 179.429 9.76463L179.137 9.91065C178.918 9.98365 178.699 9.98365 178.553 9.83764C178.407 9.69163 178.334 9.47261 178.334 9.18058C178.334 8.81555 178.407 8.45051 178.553 8.15849C179.502 5.96829 179.575 4.80018 178.991 4.14312Z" fill="#1E1E1E"/>
<path d="M235.577 11.3531C235.797 11.3531 236.017 11.2075 236.017 10.9164C236.017 10.6981 235.871 10.4798 235.577 10.4798H235.21V7.56873C234.916 7.3504 234.696 7.13208 234.476 6.91375L234.402 6.98652V10.407H219.056V6.33154H231.685C231.832 6.04043 232.052 5.8221 232.273 5.531H219.056V1.67385H234.402V3.34771C234.402 3.34771 234.402 3.34771 234.476 3.42049C234.696 3.20216 234.99 2.98383 235.21 2.83827V1.67385H235.577C235.724 1.67385 235.944 1.45553 235.944 1.2372C235.944 1.01887 235.797 0.800539 235.503 0.800539H235.21V0.436658C235.21 0.218329 235.063 0.0727763 234.769 0C234.549 0 234.402 0.145553 234.329 0.363881V0.800539H219.056V0.436658C219.056 0.218329 218.909 0 218.689 0C218.469 0 218.248 0.145553 218.248 0.363881V0.873315H217.441C217.22 0.873315 217 1.01887 217 1.2372C217 1.45553 217.147 1.67385 217.367 1.67385H218.248V5.531H217.441C217.22 5.531 217.073 5.74933 217.073 5.96766C217.073 6.11321 217.22 6.25876 217.441 6.33154H218.248V10.5526H217.441C217.22 10.5526 217.073 10.6981 217 10.9164C217 11.1348 217.147 11.2803 217.441 11.3531H218.248V15.5741H217.441C217.22 15.5741 217.073 15.7197 217 15.938C217 16.1563 217.147 16.3747 217.367 16.3747H218.175V20.5957H217.441C217.22 20.5957 217 20.7412 217 21.0323C217 21.2507 217.147 21.3962 217.367 21.469H218.175V25.3261H217.441C217.22 25.3261 217.073 25.4717 217 25.69C217 25.9084 217.147 26.1267 217.441 26.1267H218.248V26.5633C218.248 26.7817 218.395 26.9272 218.615 27C218.836 27 218.983 26.8544 219.056 26.5633V26.1267H234.402V26.5633C234.402 26.7817 234.549 27 234.769 27C234.99 27 235.21 26.8544 235.21 26.6361V26.1267H235.577C235.797 26.1267 236.017 25.9811 236.017 25.69C236.017 25.4717 235.871 25.3261 235.65 25.2534H235.21V21.3962H235.503C235.724 21.3962 235.871 21.2507 235.944 20.9596C235.944 20.7412 235.797 20.5957 235.577 20.5229H235.21V16.3019H235.503C235.724 16.3019 235.871 16.0836 235.871 15.8652C235.871 15.7197 235.724 15.5741 235.503 15.5013H235.21V11.2803H235.577V11.3531ZM234.402 25.2534H219.056V21.3962H234.402V25.2534ZM234.402 20.5957H219.056V16.3747H234.402V20.5957ZM234.402 15.5741H219.056V11.3531H234.402V15.5741Z" fill="#1E1E1E"/>
<path d="M236.678 6.69542L238 8.73315L235.944 7.42318C235.724 7.27763 235.43 7.0593 235.21 6.91375C234.99 6.69542 234.696 6.47709 234.476 6.25876L234.402 6.33154C233.962 6.69542 233.448 7.0593 233.007 7.42318L230.878 8.73315L232.199 6.76819C232.273 6.54987 232.346 6.47709 232.42 6.33154C232.64 6.04043 232.86 5.8221 233.08 5.531C233.154 5.38544 233.301 5.31267 233.374 5.23989C232.934 4.73046 232.566 4.2938 232.199 3.71159L230.878 1.74663L232.934 3.0566C233.448 3.42049 233.962 3.78437 234.402 4.14825C234.402 4.14825 234.402 4.14825 234.402 4.22102C234.622 4.0027 234.916 3.78437 235.136 3.63881C235.43 3.42049 235.65 3.27493 235.871 3.12938L237.927 1.81941L236.678 3.71159C236.311 4.22102 235.944 4.73046 235.503 5.16712C235.944 5.67655 236.311 6.18598 236.678 6.69542Z" fill="#1E1E1E"/>
<path d="M117.587 14.8865C117.587 15.0324 117.587 15.1784 117.514 15.2514C117.514 15.3243 117.441 15.3973 117.441 15.5432C117.441 15.6162 117.368 15.6162 117.295 15.6892C117.222 15.6892 117.222 15.7622 117.149 15.7622H108.971C108.898 15.7622 108.825 15.7622 108.825 15.6892C108.752 15.6892 108.752 15.6162 108.679 15.5432C108.679 15.4703 108.679 15.3243 108.679 15.2514C108.679 15.1054 108.606 15.0324 108.606 14.8865C108.606 14.7405 108.606 14.6676 108.679 14.5216C108.679 14.4486 108.752 14.3757 108.752 14.2297C108.752 14.1568 108.825 14.0838 108.898 14.0838C108.971 14.0838 109.044 14.0108 109.044 14.0108H112.257V2.18919L109.263 3.94054C109.117 4.01351 108.971 4.08649 108.898 4.08649C108.825 4.15946 108.679 4.08649 108.679 4.01351C108.606 4.01351 108.533 3.86757 108.533 3.79459C108.533 3.5027 108.533 3.28378 108.533 2.99189C108.533 2.91892 108.533 2.84595 108.606 2.77297C108.606 2.7 108.679 2.62703 108.679 2.55405C108.752 2.48108 108.825 2.48108 108.825 2.40811L112.403 0.072973C112.476 0.072973 112.476 0 112.549 0H112.768C112.841 0 112.914 0 113.06 0H113.425C113.571 0 113.717 0 113.937 0C114.01 0 114.156 0 114.229 0.072973C114.302 0.072973 114.302 0.145946 114.375 0.218919C114.375 0.291892 114.375 0.291892 114.375 0.364865V14.0838H117.222C117.295 14.0838 117.368 14.0838 117.441 14.1568C117.514 14.2297 117.514 14.2297 117.587 14.3027C117.66 14.3757 117.66 14.4486 117.66 14.5946C117.587 14.5946 117.587 14.7405 117.587 14.8865Z" fill="#1E1E1E"/>
<path d="M130 10.6541C130 11.4568 129.854 12.1865 129.562 12.9162C129.27 13.573 128.905 14.0838 128.394 14.5946C127.883 15.0324 127.225 15.3973 126.568 15.6162C125.765 15.8351 124.962 15.9811 124.159 15.9811C123.721 15.9811 123.21 15.9811 122.771 15.9081C122.406 15.8351 121.968 15.7622 121.603 15.6162C121.311 15.5432 121.019 15.4703 120.8 15.3243C120.654 15.2514 120.508 15.1784 120.362 15.1054C120.289 15.0324 120.289 15.0324 120.216 14.9595C120.216 14.8865 120.143 14.8135 120.143 14.8135C120.143 14.7405 120.07 14.6676 120.07 14.5216C120.07 14.4486 120.07 14.3027 120.07 14.1568C120.07 14.0108 120.07 13.9378 120.07 13.7919C120.07 13.7189 120.07 13.6459 120.143 13.5C120.143 13.427 120.216 13.427 120.289 13.3541C120.362 13.3541 120.362 13.2811 120.435 13.2811C120.581 13.2811 120.727 13.3541 120.8 13.427C121.019 13.573 121.238 13.6459 121.457 13.7189C121.822 13.8649 122.187 13.9378 122.552 14.0838C123.063 14.2297 123.575 14.2297 124.086 14.2297C124.597 14.2297 125.108 14.1568 125.546 14.0108C125.984 13.8649 126.349 13.7189 126.714 13.427C127.079 13.1351 127.298 12.7703 127.517 12.4054C127.737 11.8946 127.81 11.3838 127.81 10.873C127.81 10.4351 127.737 9.9973 127.59 9.55946C127.444 9.19459 127.152 8.82973 126.86 8.61081C126.495 8.31892 126.057 8.17297 125.619 8.02703C125.035 7.88108 124.451 7.80811 123.794 7.80811C123.356 7.80811 122.917 7.80811 122.552 7.88108C122.26 7.95405 121.895 7.95405 121.53 7.95405C121.384 7.95405 121.165 7.88108 121.019 7.80811C120.946 7.58919 120.873 7.44324 120.873 7.22432V0.875676C120.873 0.656757 120.946 0.437838 121.092 0.291892C121.238 0.145946 121.457 0.072973 121.603 0.072973H128.54C128.613 0.072973 128.686 0.072973 128.759 0.145946C128.832 0.218919 128.905 0.218919 128.905 0.291892C128.978 0.364865 128.978 0.510811 128.978 0.583784C128.978 0.72973 128.978 0.875676 128.978 0.948649C128.978 1.16757 128.978 1.38649 128.832 1.60541C128.759 1.75135 128.686 1.82432 128.54 1.82432H122.917V6.2027C123.21 6.12973 123.429 6.12973 123.721 6.12973H124.67C125.4 6.12973 126.203 6.2027 126.933 6.42162C127.517 6.64054 128.102 6.93243 128.54 7.2973C128.978 7.66216 129.27 8.17297 129.489 8.68378C129.854 9.41351 130 10.0703 130 10.6541Z" fill="#1E1E1E"/>
<path d="M114.01 26.7081C114.01 26.7811 114.083 26.7811 114.083 26.8541C114.083 26.927 114.083 26.927 114.01 26.927C113.937 26.927 113.937 27 113.863 27H113.279C113.279 27 113.206 27 113.206 26.927C113.206 26.927 113.206 26.8541 113.133 26.8541L112.33 24.5919H108.679L107.876 26.8541C107.876 26.8541 107.876 26.927 107.803 26.927L107.73 27H107.219C107.146 27 107.146 27 107.073 26.927L107 26.8541C107 26.7811 107 26.7081 107.073 26.7081L110.067 18.6811L110.14 18.6081C110.213 18.6081 110.213 18.5351 110.286 18.5351C110.359 18.5351 110.359 18.5351 110.432 18.5351C110.505 18.5351 110.578 18.5351 110.651 18.5351C110.724 18.5351 110.797 18.5351 110.87 18.5351C110.943 18.5351 110.943 18.5351 111.016 18.5351C111.016 18.5351 111.089 18.5351 111.089 18.6081L111.162 18.6811L114.01 26.7081ZM110.505 19.3378L108.898 23.8622H112.111L110.505 19.3378Z" fill="#1E1E1E"/>
<path d="M119.632 18.9C119.632 18.973 119.632 18.973 119.632 19.0459V19.1189L119.559 19.1919H116.93V26.8541L116.857 26.927H116.127C116.054 26.927 116.054 26.8541 116.054 26.7811V19.1919H113.425C113.352 19.1919 113.352 19.1189 113.352 19.1189V19.0459C113.352 18.973 113.352 18.973 113.352 18.9C113.352 18.827 113.352 18.827 113.352 18.7541C113.352 18.6811 113.352 18.6811 113.352 18.6081L113.425 18.5351H119.413L119.486 18.6081C119.486 18.6811 119.486 18.6811 119.486 18.7541C119.632 18.7541 119.632 18.827 119.632 18.9Z" fill="#1E1E1E"/>
<path d="M129.854 26.8541C129.854 26.927 129.781 27 129.781 27H129.124C129.051 27 129.051 26.927 129.051 26.8541V19.1919L125.692 26.8541L125.619 26.927H125.473C125.4 26.927 125.4 26.927 125.327 26.927C125.254 26.927 125.254 26.927 125.181 26.927C125.108 26.927 125.108 26.927 125.035 26.927H124.962V26.8541L121.822 19.1919V26.927L121.749 27H121.019C121.019 27 120.946 27 120.946 26.927V18.9C120.946 18.7541 120.946 18.6811 121.092 18.6081C121.165 18.5351 121.238 18.5351 121.311 18.5351H121.749C121.822 18.5351 121.968 18.5351 122.041 18.5351C122.114 18.5351 122.187 18.6081 122.26 18.6081C122.333 18.6811 122.406 18.6811 122.406 18.7541C122.479 18.827 122.479 18.9 122.552 18.973L125.327 25.7595L128.248 19.0459C128.321 18.973 128.321 18.827 128.394 18.7541C128.467 18.6811 128.467 18.6081 128.54 18.6081C128.613 18.5351 128.686 18.5351 128.686 18.5351C128.759 18.5351 128.832 18.5351 128.905 18.5351H129.416C129.489 18.5351 129.489 18.5351 129.562 18.5351C129.635 18.5351 129.635 18.5351 129.708 18.6081C129.781 18.6081 129.781 18.6811 129.781 18.7541C129.781 18.827 129.781 18.9 129.781 18.973L129.854 26.8541Z" fill="#1E1E1E"/>
<path d="M277.993 27C277.92 27 277.846 27 277.773 27L277.479 26.8541C269.551 23.3514 266.615 16.0541 265.587 10.6541C265.147 8.53784 265 6.42162 265 4.30541V3.57568C265 3.35676 265.22 3.13784 265.44 3.13784H266.101C268.01 3.13784 269.551 2.11622 269.551 1.02162V0.437838C269.625 0.218919 269.845 0 270.065 0H285.921C286.141 0 286.362 0.218919 286.362 0.437838V1.02162C286.362 2.18919 287.976 3.13784 289.885 3.13784H290.546C290.766 3.13784 290.986 3.35676 290.986 3.57568V4.23243C291.06 5.91081 291.28 21.0892 278.507 26.7081L278.213 26.8541C278.14 27 278.066 27 277.993 27ZM265.954 4.08649V4.30541C265.881 6.34865 266.028 8.39189 266.468 10.4351C267.496 15.7622 270.285 22.6946 277.846 25.9784L277.993 26.0514L278.14 25.9784C290.325 20.6514 290.105 5.98378 290.032 4.37838V4.08649H289.812C287.389 4.08649 285.407 2.7 285.407 1.09459V0.875676H270.506V1.02162C270.506 2.7 268.524 4.01351 266.101 4.01351L265.954 4.08649Z" fill="#1E1E1E"/>
<path d="M277.259 13.9378C277.259 14.5216 277.186 15.0324 276.965 15.5432C276.745 15.9811 276.452 16.4189 276.084 16.7108C275.717 17.0757 275.277 17.2946 274.763 17.4405C274.249 17.5865 273.662 17.7324 273.075 17.6595C272.708 17.6595 272.414 17.6595 272.047 17.5865C271.753 17.5135 271.46 17.4405 271.166 17.3676C270.946 17.2946 270.726 17.2216 270.579 17.1486C270.506 17.1486 270.359 17.0757 270.285 17.0027V16.9297C270.285 16.8568 270.285 16.8568 270.285 16.7838C270.285 16.6378 270.285 16.4919 270.285 16.4189C270.285 16.3459 270.285 16.3459 270.359 16.273C270.359 16.2 270.432 16.2 270.432 16.2H270.506C270.579 16.2 270.726 16.273 270.799 16.3459C270.946 16.4189 271.093 16.4919 271.24 16.5649C271.533 16.6378 271.753 16.7838 272.047 16.7838C272.414 16.8568 272.781 16.9297 273.222 16.9297C273.589 16.9297 274.029 16.8568 274.396 16.7838C274.763 16.7108 275.057 16.4919 275.35 16.273C275.644 16.0541 275.864 15.7622 276.011 15.3973C276.158 15.0324 276.231 14.5946 276.231 14.1568C276.231 13.7919 276.158 13.427 276.011 13.1351C275.864 12.8432 275.644 12.5514 275.424 12.3324C275.13 12.1135 274.763 11.9676 274.396 11.8946C273.956 11.8216 273.442 11.7486 272.928 11.7486C272.634 11.7486 272.267 11.7486 271.974 11.8216C271.753 11.6757 271.533 11.6757 271.313 11.6757C271.166 11.6757 271.093 11.6757 270.946 11.5297C270.873 11.3838 270.799 11.2378 270.799 11.0919V6.64054C270.799 6.49459 270.873 6.34865 270.946 6.27568C271.019 6.2027 271.166 6.12973 271.313 6.12973H276.231C276.305 6.12973 276.305 6.12973 276.378 6.12973C276.452 6.12973 276.452 6.2027 276.525 6.2027C276.525 6.27568 276.598 6.27568 276.598 6.34865C276.598 6.42162 276.598 6.49459 276.598 6.56757C276.598 6.71351 276.598 6.78649 276.525 6.93243C276.452 7.00541 276.378 7.07838 276.305 7.07838H271.9V10.727C272.121 10.727 272.341 10.6541 272.561 10.6541H273.368C273.956 10.6541 274.543 10.727 275.13 10.873C275.571 11.0189 276.011 11.2378 276.378 11.5297C276.672 11.8216 276.965 12.1865 277.112 12.5514C277.186 13.0622 277.259 13.5 277.259 13.9378Z" fill="#1E1E1E"/>
<path d="M285.848 11.8216C285.848 12.6243 285.774 13.427 285.627 14.2297C285.481 14.8865 285.26 15.5432 284.967 16.127C284.673 16.6378 284.233 17.0757 283.719 17.3676C283.132 17.6595 282.471 17.8054 281.81 17.8054C281.223 17.8054 280.562 17.7324 280.048 17.4405C279.535 17.2216 279.168 16.7838 278.874 16.3459C278.58 15.7622 278.36 15.1784 278.213 14.5216C278.066 13.7189 277.993 12.8432 277.993 11.9676C277.993 11.1649 278.066 10.3622 278.213 9.63243C278.36 8.97568 278.58 8.31892 278.874 7.73514C279.168 7.22432 279.608 6.78649 280.122 6.49459C280.709 6.2027 281.37 6.05676 282.03 6.05676C282.618 6.05676 283.278 6.2027 283.792 6.42162C284.306 6.64054 284.673 7.07838 284.967 7.51622C285.26 8.1 285.554 8.68378 285.627 9.34054C285.774 10.1432 285.848 11.0189 285.848 11.8216ZM284.673 11.9676C284.673 11.3838 284.673 10.873 284.6 10.3622C284.526 9.92432 284.453 9.48649 284.38 9.12162C284.306 8.75676 284.159 8.46486 284.012 8.17297C283.866 7.88108 283.719 7.66216 283.499 7.51622C283.278 7.37027 283.058 7.22432 282.838 7.07838C282.544 7.0054 282.251 6.93243 281.957 6.93243C281.443 6.93243 280.929 7.07838 280.562 7.37027C280.195 7.66216 279.902 8.02703 279.681 8.46486C279.461 8.97568 279.314 9.48649 279.241 9.9973C279.168 10.5811 279.168 11.2378 279.168 11.8216C279.168 12.5514 279.241 13.3541 279.314 14.0838C279.388 14.5946 279.535 15.1784 279.828 15.6162C280.048 15.9811 280.342 16.3459 280.709 16.4919C281.076 16.7108 281.517 16.7838 281.957 16.7838C282.324 16.7838 282.691 16.7108 282.985 16.6378C283.278 16.4919 283.499 16.3459 283.645 16.127C283.866 15.9081 284.012 15.6162 284.159 15.3243C284.306 15.0324 284.38 14.6676 284.453 14.3027C284.526 13.9378 284.6 13.573 284.6 13.1351C284.673 12.7703 284.673 12.3324 284.673 11.9676Z" fill="#1E1E1E"/>
</g>
</svg>
