<svg width="241" height="27" viewBox="0 0 241 27" fill="none" xmlns="http://www.w3.org/2000/svg">
<g opacity="0.4">
<path d="M12.3655 6.12973H10.2335C10.0203 6.12973 9.80711 5.98378 9.80711 5.69189V1.45946C9.80711 0.656757 10.4467 0 11.2284 0C12.0102 0 12.6497 0.656757 12.6497 1.45946V5.69189C12.7208 5.98378 12.5787 6.12973 12.3655 6.12973ZM10.6599 5.32703H11.9391V1.45946C11.9391 1.09459 11.6548 0.802703 11.2995 0.802703C10.9442 0.802703 10.6599 1.09459 10.6599 1.45946V5.32703Z" fill="#1E1E1E"/>
<path d="M3.7665 6.12973H1.63452C1.42132 6.12973 1.20812 5.98378 1.20812 5.69189V1.45946C1.20812 0.656757 1.84772 0 2.62944 0C3.41117 0 4.05076 0.656757 4.05076 1.45946V5.69189C4.12183 5.98378 3.9797 6.12973 3.7665 6.12973ZM2.06091 5.4H3.3401V1.45946C3.3401 1.09459 3.05584 0.802703 2.70051 0.802703C2.34518 0.802703 2.06091 1.09459 2.06091 1.45946V5.4Z" fill="#1E1E1E"/>
<path d="M14 7.15135V9.70541C14 9.92432 13.8579 10.1432 13.6447 10.1432H0.426398C0.2132 10.1432 0 9.92432 0 9.70541V7.15135C0 6.93243 0.142134 6.71351 0.426398 6.71351H13.5736C13.7868 6.71351 14 6.93243 14 7.15135ZM13.1472 9.26757V7.51622H0.781727V9.26757H13.1472Z" fill="#1E1E1E"/>
<path d="M9.38071 20.2135V26.5622C9.38071 26.7811 9.23858 27 9.02538 27H5.11675C4.90355 27 4.69036 26.8541 4.69036 26.6351V20.2865C4.69036 20.0676 4.90355 19.8486 5.11675 19.8486H8.95432C9.16751 19.8486 9.38071 19.9946 9.38071 20.2135ZM8.59899 26.1973V20.6514H5.40102V26.1973H8.59899Z" fill="#1E1E1E"/>
<path d="M14 7.15135V14.3757C14 17.0757 11.868 19.3378 9.16751 19.3378H4.83249C2.20305 19.3378 0 17.1486 0 14.3757V7.15135C0 6.93243 0.142134 6.71351 0.426398 6.71351H13.5736C13.7868 6.71351 14 6.93243 14 7.15135ZM0.781727 14.3027C0.781727 16.5649 2.55838 18.3892 4.76142 18.3892H9.09645C11.2995 18.3892 13.0761 16.5649 13.0761 14.3027V7.51622H0.781727V14.3027Z" fill="#1E1E1E"/>
<path d="M46.5174 9.77838C46.3016 9.77838 46.0858 9.63243 46.0858 9.41351V6.34865C46.0858 6.12973 46.3016 5.98378 46.5174 5.98378C46.7332 5.98378 46.949 6.12973 46.949 6.34865V9.41351C46.949 9.63243 46.7332 9.77838 46.5174 9.77838Z" fill="#1E1E1E"/>
<path d="M51.1207 9.77838C50.9049 9.77838 50.6891 9.63243 50.6891 9.41351V6.34865C50.6891 6.12973 50.9049 5.98378 51.1207 5.98378C51.3364 5.98378 51.5522 6.12973 51.5522 6.34865V9.41351C51.4803 9.63243 51.3364 9.77838 51.1207 9.77838Z" fill="#1E1E1E"/>
<path d="M55.652 9.77838C55.4362 9.77838 55.2204 9.63243 55.2204 9.41351V6.34865C55.2204 6.12973 55.4362 5.98378 55.652 5.98378C55.8678 5.98378 56.0835 6.12973 56.0835 6.34865V9.41351C56.0835 9.63243 55.8678 9.77838 55.652 9.77838Z" fill="#1E1E1E"/>
<path d="M54.7889 6.85946H47.8121C47.5963 6.85946 47.3805 6.64054 47.3805 6.42162V1.38649C47.3805 0.656757 47.9559 0 48.7471 0H54.7889C55.0046 0 55.2204 0.218919 55.2204 0.437838V6.42162C55.2204 6.64054 55.0046 6.85946 54.7889 6.85946ZM48.1717 5.98378H54.2854V0.875676H48.7471C48.4594 0.875676 48.2436 1.09459 48.2436 1.38649L48.1717 5.98378Z" fill="#1E1E1E"/>
<path d="M54.4292 23.2784H47.8121C47.5963 23.2784 47.3805 23.0595 47.3805 22.8405V16.6378C47.3805 16.3459 47.3086 16.0541 47.1647 15.8351L46.5174 14.5946C46.3735 14.2297 46.2297 13.7919 46.2297 13.3541V12.3324C46.2297 12.1135 46.4455 11.8946 46.6613 11.8946H55.5081C55.7239 11.8946 55.9397 12.1135 55.9397 12.3324V13.3541C55.9397 13.7919 55.8678 14.1568 55.652 14.5946L55.0046 15.9081C54.8608 16.2 54.7889 16.4189 54.7889 16.7108V22.9135C54.7889 23.0595 54.645 23.2784 54.4292 23.2784ZM48.1717 22.4027H53.9258V16.6378C53.9258 16.2 53.9977 15.8351 54.2135 15.3973L54.8608 14.0838C55.0046 13.7919 55.0766 13.573 55.0766 13.2811V12.6973H47.0928V13.2811C47.0928 13.573 47.1647 13.8649 47.3086 14.0838L47.9559 15.3973C48.1717 15.7622 48.2436 16.2 48.2436 16.6378L48.1717 22.4027Z" fill="#1E1E1E"/>
<path d="M56.6589 12.7703H45.5104C44.7193 12.7703 44 12.1135 44 11.3108V8.53784C44 8.31892 44.2158 8.1 44.4316 8.1C44.6473 8.1 44.8631 8.31892 44.8631 8.53784V11.3108C44.8631 11.6757 45.1508 11.9676 45.5104 11.9676H56.6589C57.0186 11.9676 57.3063 11.6757 57.3063 11.3108V8.53784C57.3063 8.31892 57.522 8.1 57.7378 8.1C57.9536 8.1 58.1694 8.31892 58.1694 8.53784V11.3108C58.0974 12.1135 57.4501 12.7703 56.6589 12.7703Z" fill="#1E1E1E"/>
<path d="M57.7378 9.77838C57.522 9.77838 57.3063 9.55946 57.3063 9.34054V6.85946H44.8631V9.41351C44.8631 9.63243 44.6473 9.85135 44.4316 9.85135C44.2158 9.85135 44 9.63243 44 9.41351V6.42162C44 6.2027 44.2158 5.98378 44.4316 5.98378H57.7378C57.9536 5.98378 58.1694 6.2027 58.1694 6.42162V9.41351C58.0974 9.63243 57.9536 9.77838 57.7378 9.77838Z" fill="#1E1E1E"/>
<path d="M53.0626 27H49.1067C48.891 27 48.7471 26.7811 48.7471 26.5622V22.8405C48.7471 22.6216 48.891 22.4027 49.1067 22.4027H53.1346C53.3503 22.4027 53.4942 22.6216 53.4942 22.8405V26.5622C53.4942 26.7811 53.3503 27 53.0626 27ZM49.4664 26.1243H52.703V23.2784H49.4664V26.1243Z" fill="#1E1E1E"/>
<path d="M68.5267 11.3108C68.5267 10.727 68.0232 10.2162 67.4478 10.2162C66.8724 10.2162 66.3689 10.727 66.3689 11.3108C66.3689 11.8946 66.8724 12.4054 67.4478 12.4054C68.0232 12.3324 68.5267 11.8946 68.5267 11.3108Z" fill="#1E1E1E"/>
<path d="M69.2459 13.3541C68.6705 13.3541 68.1671 13.8649 68.1671 14.4486C68.1671 15.0324 68.6705 15.5432 69.2459 15.5432C69.8213 15.5432 70.3248 15.0324 70.3248 14.4486C70.2529 13.8649 69.8213 13.3541 69.2459 13.3541Z" fill="#1E1E1E"/>
<path d="M65.6497 13.3541C65.0742 13.3541 64.5708 13.8649 64.5708 14.4486C64.5708 15.0324 65.0742 15.5432 65.6497 15.5432C66.2251 15.5432 66.7285 15.0324 66.7285 14.4486C66.7285 13.8649 66.2251 13.3541 65.6497 13.3541Z" fill="#1E1E1E"/>
<path d="M67.4478 21.2351C63.2761 21.2351 59.8237 17.8054 59.8237 13.5C59.8237 9.19459 63.2042 5.76486 67.4478 5.76486C71.6914 5.76486 75 9.26757 75 13.5C75 17.7324 71.6195 21.1622 67.4478 21.2351ZM67.4478 6.56757C63.7077 6.56757 60.6149 9.63243 60.6149 13.5C60.6149 17.3676 63.6357 20.4324 67.4478 20.4324C71.2599 20.4324 74.2807 17.3676 74.2807 13.5C74.2088 9.70541 71.1879 6.56757 67.4478 6.56757Z" fill="#1E1E1E"/>
<path d="M70.6845 18.0243H64.2111C63.7796 18.0243 63.42 17.8784 63.1323 17.5865C62.1253 16.4189 61.5499 14.8865 61.6218 13.3541C61.7657 10.3622 64.2111 7.88108 67.1601 7.73514C70.3248 7.58919 73.058 10.0703 73.2019 13.3541C73.2738 14.8865 72.6984 16.4189 71.6914 17.5865C71.4756 17.8784 71.0441 18.0243 70.6845 18.0243ZM67.4478 8.53784C67.3759 8.53784 67.3039 8.53784 67.232 8.53784C64.7146 8.68378 62.6288 10.727 62.4849 13.3541C62.413 14.6676 62.9165 15.9811 63.7796 17.0027C63.9234 17.1486 64.0673 17.2216 64.2111 17.2216H70.6845C70.8283 17.2216 70.9722 17.1486 71.116 17.0027C72.9861 14.9595 72.8422 11.7486 70.8283 9.92432C69.8933 9.04865 68.6705 8.53784 67.4478 8.53784Z" fill="#1E1E1E"/>
<path d="M105.04 25.8261C103.653 24.439 103.653 22.2488 105.04 20.9346C105.113 20.8616 105.186 20.7886 105.259 20.7156L111.316 15.7512C112.045 15.1671 112.337 14.145 112.045 13.269C111.68 12.2469 111.17 11.2978 110.805 10.7137C110.586 10.3487 110.659 9.91065 110.951 9.61862L120.218 0.273775C120.583 -0.0912583 121.167 -0.0912583 121.532 0.273775L130.726 9.47261C131.091 9.83764 131.091 10.4217 130.726 10.7867L121.386 20.1316C121.094 20.4236 120.656 20.4966 120.291 20.2776C119.707 19.9126 118.759 19.4015 117.737 19.0365C116.861 18.7444 115.84 19.0365 115.256 19.7665L110.294 25.7531C109.126 27.2132 106.937 27.4322 105.478 26.1911C105.405 26.1181 105.332 26.0451 105.259 25.9721L105.04 25.8261ZM113.14 15.6052C113.14 15.6052 113.067 15.6782 105.989 21.5187C105.916 21.5917 105.843 21.5917 105.843 21.6647C104.894 22.6138 104.894 24.2199 105.843 25.169C106.791 26.1181 108.397 26.1181 109.345 25.169C109.418 25.096 109.491 25.023 109.491 25.023L115.402 17.8684C115.402 17.8684 115.694 17.5033 116.643 17.6493C117.445 17.7224 118.467 18.1604 119.707 18.8905C120.218 19.1825 120.802 19.1095 121.24 18.7444L122.261 17.5033C122.772 16.9923 122.772 16.2622 122.261 15.7512L115.183 8.74254C114.672 8.23149 113.943 8.23149 113.432 8.74254L112.337 9.83764C111.972 10.2027 111.826 10.8597 112.191 11.3708C112.921 12.5389 113.359 13.561 113.432 14.4371C113.505 15.3131 113.213 15.6052 113.14 15.6052ZM122.991 4.14312C122.043 3.26705 119.999 4.65417 119.634 4.9462C119.197 5.23822 118.321 5.53025 117.883 5.31123C117.445 5.09221 116.861 5.23822 116.497 5.60326L116.059 6.0413C115.548 6.55234 115.548 7.35542 116.059 7.79346L123.356 15.0941C123.867 15.6052 124.67 15.6052 125.107 15.0941L125.983 14.218C126.275 13.926 126.421 13.488 126.348 13.0499C126.348 12.9769 126.348 12.8309 126.421 12.6849C126.786 11.8088 127.297 10.4217 126.567 9.69163C126.567 9.69163 126.567 9.69163 126.494 9.61862C125.764 8.96156 124.743 9.32659 123.429 9.76463L123.137 9.91065C122.918 9.98365 122.699 9.98365 122.553 9.83764C122.407 9.69163 122.334 9.47261 122.334 9.18058C122.334 8.81555 122.407 8.45051 122.553 8.15849C123.502 5.96829 123.575 4.80018 122.991 4.14312Z" fill="#1E1E1E"/>
<path d="M178.577 11.3531C178.797 11.3531 179.017 11.2075 179.017 10.9164C179.017 10.6981 178.871 10.4798 178.577 10.4798H178.21V7.56873C177.916 7.3504 177.696 7.13208 177.476 6.91375L177.402 6.98652V10.407H162.056V6.33154H174.685C174.832 6.04043 175.052 5.8221 175.273 5.531H162.056V1.67385H177.402V3.34771C177.402 3.34771 177.402 3.34771 177.476 3.42049C177.696 3.20216 177.99 2.98383 178.21 2.83827V1.67385H178.577C178.724 1.67385 178.944 1.45553 178.944 1.2372C178.944 1.01887 178.797 0.800539 178.503 0.800539H178.21V0.436658C178.21 0.218329 178.063 0.0727763 177.769 0C177.549 0 177.402 0.145553 177.329 0.363881V0.800539H162.056V0.436658C162.056 0.218329 161.909 0 161.689 0C161.469 0 161.248 0.145553 161.248 0.363881V0.873315H160.441C160.22 0.873315 160 1.01887 160 1.2372C160 1.45553 160.147 1.67385 160.367 1.67385H161.248V5.531H160.441C160.22 5.531 160.073 5.74933 160.073 5.96766C160.073 6.11321 160.22 6.25876 160.441 6.33154H161.248V10.5526H160.441C160.22 10.5526 160.073 10.6981 160 10.9164C160 11.1348 160.147 11.2803 160.441 11.3531H161.248V15.5741H160.441C160.22 15.5741 160.073 15.7197 160 15.938C160 16.1563 160.147 16.3747 160.367 16.3747H161.175V20.5957H160.441C160.22 20.5957 160 20.7412 160 21.0323C160 21.2507 160.147 21.3962 160.367 21.469H161.175V25.3261H160.441C160.22 25.3261 160.073 25.4717 160 25.69C160 25.9084 160.147 26.1267 160.441 26.1267H161.248V26.5633C161.248 26.7817 161.395 26.9272 161.615 27C161.836 27 161.983 26.8544 162.056 26.5633V26.1267H177.402V26.5633C177.402 26.7817 177.549 27 177.769 27C177.99 27 178.21 26.8544 178.21 26.6361V26.1267H178.577C178.797 26.1267 179.017 25.9811 179.017 25.69C179.017 25.4717 178.871 25.3261 178.65 25.2534H178.21V21.3962H178.503C178.724 21.3962 178.871 21.2507 178.944 20.9596C178.944 20.7412 178.797 20.5957 178.577 20.5229H178.21V16.3019H178.503C178.724 16.3019 178.871 16.0836 178.871 15.8652C178.871 15.7197 178.724 15.5741 178.503 15.5013H178.21V11.2803H178.577V11.3531ZM177.402 25.2534H162.056V21.3962H177.402V25.2534ZM177.402 20.5957H162.056V16.3747H177.402V20.5957ZM177.402 15.5741H162.056V11.3531H177.402V15.5741Z" fill="#1E1E1E"/>
<path d="M179.678 6.69542L181 8.73315L178.944 7.42318C178.724 7.27763 178.43 7.0593 178.21 6.91375C177.99 6.69542 177.696 6.47709 177.476 6.25876L177.402 6.33154C176.962 6.69542 176.448 7.0593 176.007 7.42318L173.878 8.73315L175.199 6.76819C175.273 6.54987 175.346 6.47709 175.42 6.33154C175.64 6.04043 175.86 5.8221 176.08 5.531C176.154 5.38544 176.301 5.31267 176.374 5.23989C175.934 4.73046 175.566 4.2938 175.199 3.71159L173.878 1.74663L175.934 3.0566C176.448 3.42049 176.962 3.78437 177.402 4.14825C177.402 4.14825 177.402 4.14825 177.402 4.22102C177.622 4.0027 177.916 3.78437 178.136 3.63881C178.43 3.42049 178.65 3.27493 178.871 3.12938L180.927 1.81941L179.678 3.71159C179.311 4.22102 178.944 4.73046 178.503 5.16712C178.944 5.67655 179.311 6.18598 179.678 6.69542Z" fill="#1E1E1E"/>
<path d="M232.9 12.4054C232.9 12.9162 232.827 13.3541 232.606 13.7919C232.458 14.1568 232.164 14.5216 231.869 14.8135C231.501 15.1054 231.133 15.3243 230.691 15.4703C230.176 15.6162 229.734 15.6892 229.219 15.6892C228.924 15.6892 228.629 15.6892 228.335 15.6162C228.114 15.5432 227.819 15.5432 227.599 15.4703C227.451 15.3973 227.23 15.3243 227.083 15.2514C227.01 15.1784 226.936 15.1784 226.789 15.1054L226.715 15.0324V14.9595C226.715 14.8865 226.715 14.8865 226.715 14.8135C226.715 14.7405 226.715 14.6676 226.715 14.6676C226.715 14.5946 226.715 14.5216 226.715 14.5216C226.715 14.4486 226.715 14.4486 226.789 14.3757L226.862 14.3027H226.936C227.01 14.3027 227.083 14.3757 227.157 14.3757C227.304 14.4486 227.451 14.5216 227.599 14.5946C227.819 14.6676 228.04 14.7405 228.335 14.8135C228.703 14.8865 228.998 14.8865 229.366 14.8865C229.734 14.8865 230.029 14.8135 230.397 14.7405C230.691 14.6676 230.986 14.5216 231.207 14.3027C231.428 14.0838 231.648 13.8649 231.722 13.573C231.869 13.2081 231.943 12.8432 231.943 12.4784C231.943 12.1865 231.869 11.8216 231.796 11.5297C231.648 11.2378 231.501 11.0189 231.28 10.873C230.986 10.6541 230.691 10.5081 230.397 10.4351C229.955 10.3622 229.587 10.2892 229.145 10.2892C228.85 10.2892 228.629 10.2892 228.335 10.3622C228.114 10.3622 227.893 10.4351 227.746 10.4351C227.672 10.4351 227.525 10.4351 227.451 10.3622C227.378 10.2892 227.378 10.1432 227.378 9.9973V6.05676C227.378 5.91081 227.378 5.83784 227.525 5.69189C227.599 5.61892 227.746 5.54595 227.819 5.54595H232.09C232.164 5.54595 232.164 5.54595 232.238 5.54595C232.311 5.54595 232.311 5.61892 232.311 5.61892C232.311 5.69189 232.385 5.69189 232.385 5.76486C232.385 5.83784 232.385 5.91081 232.385 5.91081C232.385 5.98378 232.385 6.12973 232.311 6.2027C232.238 6.27568 232.164 6.34865 232.09 6.34865H228.261V9.48649C228.482 9.48649 228.629 9.41351 228.85 9.41351C229.071 9.41351 229.292 9.41351 229.587 9.41351C230.102 9.41351 230.618 9.48649 231.133 9.63243C231.501 9.77838 231.943 9.92432 232.238 10.2162C232.532 10.4351 232.753 10.8 232.9 11.0919C232.827 11.6027 232.9 12.0405 232.9 12.4054Z" fill="#1E1E1E"/>
<path d="M241 12.4054C241 12.9162 240.926 13.3541 240.705 13.7919C240.558 14.1568 240.264 14.5216 239.969 14.8135C239.601 15.1054 239.233 15.3243 238.791 15.4703C238.276 15.6162 237.834 15.6892 237.318 15.6892C237.024 15.6892 236.729 15.6892 236.435 15.6162C236.214 15.5432 235.919 15.5432 235.698 15.4703C235.551 15.3973 235.33 15.3243 235.183 15.2514C235.109 15.1784 235.036 15.1784 234.888 15.1054L234.815 15.0324V14.9595C234.815 14.8865 234.815 14.8865 234.815 14.8135C234.815 14.7405 234.815 14.6676 234.815 14.6676C234.815 14.5946 234.815 14.5216 234.815 14.5216C234.815 14.4486 234.815 14.4486 234.888 14.3757L234.962 14.3027H235.036C235.109 14.3027 235.183 14.3757 235.257 14.3757C235.404 14.4486 235.551 14.5216 235.698 14.5946C235.919 14.6676 236.14 14.7405 236.435 14.8135C236.803 14.8865 237.097 14.8865 237.466 14.8865C237.834 14.8865 238.128 14.8135 238.496 14.7405C238.791 14.6676 239.086 14.5216 239.306 14.3027C239.527 14.0838 239.748 13.8649 239.822 13.573C239.969 13.2081 240.043 12.8432 240.043 12.4784C240.043 12.1865 239.969 11.8216 239.895 11.5297C239.748 11.2378 239.601 11.0189 239.38 10.873C239.086 10.6541 238.791 10.5081 238.496 10.4351C238.055 10.3622 237.686 10.2892 237.245 10.2892C236.95 10.2892 236.729 10.2892 236.435 10.3622C236.214 10.3622 235.993 10.4351 235.846 10.4351C235.772 10.4351 235.625 10.4351 235.551 10.3622C235.477 10.2892 235.477 10.1432 235.477 9.9973V6.05676C235.477 5.91081 235.477 5.83784 235.625 5.69189C235.698 5.61892 235.846 5.54595 235.919 5.54595H240.19C240.264 5.54595 240.264 5.54595 240.337 5.54595C240.411 5.54595 240.411 5.61892 240.411 5.61892C240.411 5.69189 240.485 5.69189 240.485 5.76486C240.485 5.83784 240.485 5.91081 240.485 5.91081C240.485 5.98378 240.485 6.12973 240.411 6.2027C240.337 6.27568 240.264 6.34865 240.19 6.34865H236.287V9.48649C236.508 9.48649 236.656 9.41351 236.876 9.41351C237.097 9.41351 237.318 9.41351 237.613 9.41351C238.128 9.41351 238.644 9.48649 239.159 9.63243C239.527 9.77838 239.969 9.92432 240.264 10.2162C240.558 10.4351 240.779 10.8 240.926 11.0919C240.926 11.6027 241 12.0405 241 12.4054Z" fill="#1E1E1E"/>
<path d="M215.964 27C212.724 27 210 24.373 210 21.0892C210 19.1919 210.884 17.4405 212.356 16.3459V3.57568C212.43 1.60541 213.976 0 215.964 0C217.952 0 219.572 1.60541 219.572 3.57568V16.3459C222.223 18.3162 222.739 22.0378 220.751 24.6649C219.646 26.1243 217.879 27 215.964 27ZM215.964 0.948649C214.492 0.948649 213.314 2.11622 213.314 3.57568V16.7838L213.093 16.9297C210.81 18.5351 210.221 21.6 211.767 23.9351C213.387 26.1973 216.48 26.7811 218.836 25.2486C221.119 23.6432 221.708 20.5784 220.162 18.2432C219.793 17.7324 219.352 17.2946 218.836 16.9297L218.689 16.7838V3.57568C218.689 2.11622 217.437 0.948649 215.964 0.948649Z" fill="#1E1E1E"/>
<path d="M215.964 24.7378C213.903 24.7378 212.283 23.0595 212.283 21.0892C212.283 20.8703 212.283 20.6514 212.356 20.5054C212.504 19.5568 213.093 18.6081 214.05 18.0243C214.492 17.7324 214.713 17.2946 214.713 16.7838V13.5C214.713 12.7703 215.302 12.1865 216.038 12.2595C216.701 12.2595 217.29 12.8432 217.29 13.5V16.7838C217.29 17.2946 217.511 17.7324 217.952 18.0243C218.836 18.6081 219.499 19.5568 219.646 20.5054C219.793 21.6 219.499 22.6946 218.836 23.4973C218.1 24.3 217.069 24.7378 215.964 24.7378ZM215.964 13.0622C215.743 13.0622 215.596 13.2081 215.596 13.427V16.7108C215.596 17.5135 215.228 18.2432 214.565 18.6811C213.903 19.1189 213.387 19.8486 213.314 20.5784C213.093 22.1108 214.05 23.4973 215.596 23.7892C217.143 24.0081 218.542 23.0595 218.836 21.527C218.91 21.2351 218.91 20.9432 218.836 20.5784C218.689 19.8486 218.247 19.1919 217.584 18.6811C216.774 18.2432 216.406 17.5135 216.406 16.7108V13.427C216.406 13.2811 216.185 13.0622 215.964 13.0622Z" fill="#1E1E1E"/>
<path d="M223.99 2.91892H221.119C220.898 2.91892 220.677 2.7 220.677 2.48108C220.677 2.26216 220.898 2.04324 221.119 2.04324H223.99C224.211 2.04324 224.432 2.26216 224.432 2.48108C224.432 2.7 224.211 2.91892 223.99 2.91892Z" fill="#1E1E1E"/>
<path d="M223.99 7.2973H221.119C220.898 7.2973 220.677 7.07838 220.677 6.85946C220.677 6.64054 220.898 6.42162 221.119 6.42162H223.99C224.211 6.42162 224.432 6.64054 224.432 6.85946C224.432 7.07838 224.211 7.2973 223.99 7.2973Z" fill="#1E1E1E"/>
<path d="M223.99 11.6757H221.119C220.898 11.6757 220.677 11.4568 220.677 11.2378C220.677 11.0189 220.898 10.8 221.119 10.8H223.99C224.211 10.8 224.432 11.0189 224.432 11.2378C224.432 11.4568 224.211 11.6757 223.99 11.6757Z" fill="#1E1E1E"/>
<path d="M223.99 16.0541H221.708C221.487 16.0541 221.266 15.8351 221.266 15.6162C221.266 15.3973 221.487 15.1784 221.708 15.1784H223.99C224.211 15.1784 224.432 15.3973 224.432 15.6162C224.432 15.8351 224.211 16.0541 223.99 16.0541Z" fill="#1E1E1E"/>
</g>
</svg>
