<svg width="20" height="20" viewBox="0 0 20 20" fill="none" xmlns="http://www.w3.org/2000/svg">
<g opacity="0.5">
<path fill-rule="evenodd" clip-rule="evenodd" d="M16.6667 3.33337C18.0474 3.33337 19.1667 4.45266 19.1667 5.83337V14.1667C19.1667 15.5474 18.0474 16.6667 16.6667 16.6667H3.33334C1.95263 16.6667 0.833344 15.5474 0.833344 14.1667V5.83337C0.833344 4.45266 1.95263 3.33337 3.33334 3.33337H16.6667ZM16.0441 5.00004H3.95599L9.48365 9.36399C9.78641 9.603 10.2136 9.603 10.5164 9.36398L16.0441 5.00004ZM2.50001 5.97404V14.1667C2.50001 14.6269 2.87311 15 3.33334 15H16.6667C17.1269 15 17.5 14.6269 17.5 14.1667V5.97406L11.5491 10.6721C10.6409 11.3892 9.35919 11.3892 8.45091 10.6721L2.50001 5.97404Z" fill="white"/>
</g>
</svg>
