<svg width="20" height="20" viewBox="0 0 20 20" fill="none" xmlns="http://www.w3.org/2000/svg">
<g opacity="0.5">
<path fill-rule="evenodd" clip-rule="evenodd" d="M10.003 11.6695C12.0741 11.6695 13.753 9.9906 13.753 7.91954C13.753 5.84847 12.0741 4.16954 10.003 4.16954C7.93192 4.16954 6.25299 5.84847 6.25299 7.91954C6.25299 9.9906 7.93192 11.6695 10.003 11.6695ZM10.003 10.0059C8.85074 10.0059 7.91666 9.07178 7.91666 7.91954C7.91666 6.76729 8.85074 5.83321 10.003 5.83321C11.1552 5.83321 12.0893 6.76729 12.0893 7.91954C12.0893 9.07178 11.1552 10.0059 10.003 10.0059Z" fill="white"/>
<path fill-rule="evenodd" clip-rule="evenodd" d="M17.7267 9.65144C18.8041 4.82344 15.0043 0.00292969 9.99999 0.00292969C4.99707 0.00292969 1.19699 4.83006 2.27346 9.65205C3.10435 13.5684 6.46433 17.3721 8.46965 19.3557C9.32849 20.2052 10.6715 20.2052 11.5303 19.3557C13.5358 17.372 16.896 13.568 17.7267 9.65144ZM9.99999 1.6696C13.927 1.6696 16.9473 5.49149 16.1 9.28844C15.693 11.1129 14.7799 12.7513 13.7084 14.2658C12.5886 15.8487 11.3191 17.2203 10.3583 18.1708C10.1488 18.378 9.85119 18.378 9.64173 18.1708C8.68093 17.2204 7.41149 15.8488 6.29173 14.2661C5.22015 12.7514 4.30738 11.1134 3.90009 9.28892C3.05364 5.49733 6.07509 1.6696 9.99999 1.6696Z" fill="white"/>
</g>
</svg>
